<svg preserveAspectRatio="none" width="100%" height="100%" overflow="visible" style="display: block;" viewBox="0 0 86.4022 11.0883" fill="none" xmlns="http://www.w3.org/2000/svg">
<g id="ATQANTECH">
<path id="Vector" d="M77.7845 10.2582V0.138498H79.9241V4.31386H84.2674V0.138498H86.4021V10.2582H84.2674V6.07788H79.9241V10.2582H77.7845Z" fill="var(--fill-0, #050C16)"/>
<path id="Vector_2" d="M76.2499 3.68133H74.0856C74.0461 3.40133 73.9654 3.15262 73.8435 2.9352C73.7216 2.71449 73.5652 2.52672 73.3741 2.3719C73.183 2.21707 72.9623 2.09848 72.712 2.01613C72.4649 1.93377 72.1964 1.8926 71.9066 1.8926C71.3828 1.8926 70.9265 2.02272 70.5378 2.28296C70.1491 2.5399 69.8477 2.91544 69.6336 3.40956C69.4195 3.90039 69.3124 4.49664 69.3124 5.1983C69.3124 5.91972 69.4195 6.52585 69.6336 7.01668C69.851 7.50751 70.1541 7.8781 70.5428 8.12846C70.9315 8.37882 71.3811 8.50399 71.8917 8.50399C72.1783 8.50399 72.4435 8.46611 72.6873 8.39035C72.9343 8.31458 73.1534 8.20422 73.3445 8.05928C73.5355 7.91104 73.6936 7.73151 73.8188 7.52069C73.9473 7.30986 74.0362 7.06938 74.0856 6.79926L76.2499 6.80914C76.1939 7.27362 76.0539 7.72163 75.8299 8.15317C75.6092 8.58141 75.3111 8.96518 74.9355 9.30448C74.5633 9.64048 74.1186 9.90731 73.6014 10.105C73.0875 10.2993 72.5061 10.3965 71.8571 10.3965C70.9545 10.3965 70.1475 10.1923 69.4359 9.78378C68.7277 9.3753 68.1677 8.784 67.7559 8.00987C67.3474 7.23574 67.1432 6.29855 67.1432 5.1983C67.1432 4.09475 67.3507 3.15591 67.7658 2.38178C68.1808 1.60765 68.7442 1.018 69.4557 0.612813C70.1672 0.204335 70.9677 9.67072e-05 71.8571 9.67072e-05C72.4435 9.67072e-05 72.987 0.0824511 73.4878 0.24716C73.9918 0.411868 74.4381 0.652342 74.8268 0.968582C75.2155 1.28153 75.5318 1.6653 75.7756 2.11989C76.0226 2.57449 76.1807 3.09497 76.2499 3.68133Z" fill="var(--fill-0, #050C16)"/>
<path id="Vector_3" d="M58.7994 10.2582V0.138498H65.6183V1.90253H60.939V4.31386H65.2675V6.07788H60.939V8.49416H65.6381V10.2582H58.7994Z" fill="var(--fill-0, #050C16)"/>
<path id="Vector_4" d="M49.1217 1.90253V0.138498H57.4329V1.90253H54.3347V10.2582H52.2199V1.90253H49.1217Z" fill="var(--fill-0, #050C16)"/>
<path id="Vector_5" d="M47.7383 0.138498V10.2582H45.8903L41.4876 3.88891H41.4135V10.2582H39.2739V0.138498H41.1516L45.5197 6.50283H45.6086V0.138498H47.7383Z" fill="var(--fill-0, #050C16)"/>
<path id="Vector_6" d="M30.6079 10.2582H28.3152L31.8086 0.138498H34.5659L38.0544 10.2582H35.7616L33.2268 2.45101H33.1477L30.6079 10.2582ZM30.4646 6.28048H35.8802V7.95062H30.4646V6.28048Z" fill="var(--fill-0, #050C16)"/>
<path id="Vector_7" d="M24.048 8.96353H26.0022L27.6971 11.0883H25.7008L24.5347 9.65531L23.9368 8.80541L24.048 8.96353ZM27.8503 5.1983C27.8503 6.30184 27.6411 7.24068 27.2227 8.01481C26.8077 8.78894 26.2411 9.38024 25.5229 9.78872C24.8081 10.1939 24.0043 10.3965 23.1116 10.3965C22.2123 10.3965 21.4052 10.1923 20.6904 9.78378C19.9755 9.3753 19.4106 8.784 18.9955 8.00987C18.5805 7.23574 18.3729 6.29855 18.3729 5.1983C18.3729 4.09475 18.5805 3.15591 18.9955 2.38178C19.4106 1.60765 19.9755 1.018 20.6904 0.612813C21.4052 0.204335 22.2123 9.67072e-05 23.1116 9.67072e-05C24.0043 9.67072e-05 24.8081 0.204335 25.5229 0.612813C26.2411 1.018 26.8077 1.60765 27.2227 2.38178C27.6411 3.15591 27.8503 4.09475 27.8503 5.1983ZM25.681 5.1983C25.681 4.48346 25.574 3.88063 25.3599 3.3898C25.149 2.89897 24.8509 2.52672 24.4655 2.27307C24.0801 2.01942 23.6288 1.8926 23.1116 1.8926C22.5944 1.8926 22.1431 2.01942 21.7577 2.27307C21.3723 2.52672 21.0725 2.89897 20.8584 3.3898C20.6476 3.88063 20.5421 4.48346 20.5421 5.1983C20.5421 5.91313 20.6476 6.51596 20.8584 7.00679C21.0725 7.49763 21.3723 7.86987 21.7577 8.12352C22.1431 8.37717 22.5944 8.50399 23.1116 8.50399C23.6288 8.50399 24.0801 8.37717 24.4655 8.12352C24.8509 7.86987 25.149 7.49763 25.3599 7.00679C25.574 6.51596 25.681 5.91313 25.681 5.1983Z" fill="var(--fill-0, #050C16)"/>
<path id="Vector_8" d="M9.33385 1.90253V0.138498H17.645V1.90253H14.5469V10.2582H12.432V1.90253H9.33385Z" fill="var(--fill-0, #050C16)"/>
<path id="Vector_9" d="M2.29275 10.2582H5.8368e-06L3.49347 0.138498H6.25069L9.73922 10.2582H7.44647L4.91161 2.45101H4.83255L2.29275 10.2582ZM2.14945 6.28048H7.56506V7.95062H2.14945V6.28048Z" fill="var(--fill-0, #050C16)"/>
</g>
</svg>
