<svg preserveAspectRatio="none" width="100%" height="100%" overflow="visible" style="display: block;" viewBox="0 0 86 86" fill="none" xmlns="http://www.w3.org/2000/svg">
<g id="Artificial Inteligent">
<g id="Group">
<path id="Vector" d="M41.6562 10.75V1.34375C41.6562 0.987365 41.7978 0.645577 42.0498 0.393575C42.3018 0.141573 42.6436 0 43 0C43.3564 0 43.6982 0.141573 43.9502 0.393575C44.2022 0.645577 44.3438 0.987365 44.3438 1.34375V10.75C44.3438 11.1064 44.2022 11.4482 43.9502 11.7002C43.6982 11.9522 43.3564 12.0938 43 12.0938C42.6436 12.0938 42.3018 11.9522 42.0498 11.7002C41.7978 11.4482 41.6562 11.1064 41.6562 10.75ZM36.2812 10.75V1.34375C36.2812 0.987365 36.4228 0.645577 36.6748 0.393575C36.9268 0.141573 37.2686 0 37.625 0C37.9814 0 38.3232 0.141573 38.5752 0.393575C38.8272 0.645577 38.9688 0.987365 38.9688 1.34375V10.75C38.9688 11.1064 38.8272 11.4482 38.5752 11.7002C38.3232 11.9522 37.9814 12.0938 37.625 12.0938C37.2686 12.0938 36.9268 11.9522 36.6748 11.7002C36.4228 11.4482 36.2812 11.1064 36.2812 10.75ZM30.9062 10.75V1.34375C30.9062 0.987365 31.0478 0.645577 31.2998 0.393575C31.5518 0.141573 31.8936 0 32.25 0C32.6064 0 32.9482 0.141573 33.2002 0.393575C33.4522 0.645577 33.5938 0.987365 33.5938 1.34375V10.75C33.5938 11.1064 33.4522 11.4482 33.2002 11.7002C32.9482 11.9522 32.6064 12.0938 32.25 12.0938C31.8936 12.0938 31.5518 11.9522 31.2998 11.7002C31.0478 11.4482 30.9062 11.1064 30.9062 10.75ZM25.5312 10.75V1.34375C25.5312 0.987365 25.6728 0.645577 25.9248 0.393575C26.1768 0.141573 26.5186 0 26.875 0C27.2314 0 27.5732 0.141573 27.8252 0.393575C28.0772 0.645577 28.2188 0.987365 28.2188 1.34375V10.75C28.2188 11.1064 28.0772 11.4482 27.8252 11.7002C27.5732 11.9522 27.2314 12.0938 26.875 12.0938C26.5186 12.0938 26.1768 11.9522 25.9248 11.7002C25.6728 11.4482 25.5312 11.1064 25.5312 10.75ZM20.1562 10.75V1.34375C20.1562 0.987365 20.2978 0.645577 20.5498 0.393575C20.8018 0.141573 21.1436 0 21.5 0C21.8564 0 22.1982 0.141573 22.4502 0.393575C22.7022 0.645577 22.8438 0.987365 22.8438 1.34375V10.75C22.8438 11.1064 22.7022 11.4482 22.4502 11.7002C22.1982 11.9522 21.8564 12.0938 21.5 12.0938C21.1436 12.0938 20.8018 11.9522 20.5498 11.7002C20.2978 11.4482 20.1562 11.1064 20.1562 10.75ZM63.1562 10.75V1.34375C63.1562 0.987365 63.2978 0.645577 63.5498 0.393575C63.8018 0.141573 64.1436 0 64.5 0C64.8564 0 65.1982 0.141573 65.4502 0.393575C65.7022 0.645577 65.8438 0.987365 65.8438 1.34375V10.75C65.8438 11.1064 65.7022 11.4482 65.4502 11.7002C65.1982 11.9522 64.8564 12.0938 64.5 12.0938C64.1436 12.0938 63.8018 11.9522 63.5498 11.7002C63.2978 11.4482 63.1562 11.1064 63.1562 10.75ZM57.7812 10.75V1.34375C57.7812 0.987365 57.9228 0.645577 58.1748 0.393575C58.4268 0.141573 58.7686 0 59.125 0C59.4814 0 59.8232 0.141573 60.0752 0.393575C60.3272 0.645577 60.4688 0.987365 60.4688 1.34375V10.75C60.4688 11.1064 60.3272 11.4482 60.0752 11.7002C59.8232 11.9522 59.4814 12.0938 59.125 12.0938C58.7686 12.0938 58.4268 11.9522 58.1748 11.7002C57.9228 11.4482 57.7812 11.1064 57.7812 10.75ZM52.4062 10.75V1.34375C52.4062 0.987365 52.5478 0.645577 52.7998 0.393575C53.0518 0.141573 53.3936 0 53.75 0C54.1064 0 54.4482 0.141573 54.7002 0.393575C54.9522 0.645577 55.0938 0.987365 55.0938 1.34375V10.75C55.0938 11.1064 54.9522 11.4482 54.7002 11.7002C54.4482 11.9522 54.1064 12.0938 53.75 12.0938C53.3936 12.0938 53.0518 11.9522 52.7998 11.7002C52.5478 11.4482 52.4062 11.1064 52.4062 10.75ZM47.0312 10.75V1.34375C47.0312 0.987365 47.1728 0.645577 47.4248 0.393575C47.6768 0.141573 48.0186 0 48.375 0C48.7314 0 49.0732 0.141573 49.3252 0.393575C49.5772 0.645577 49.7188 0.987365 49.7188 1.34375V10.75C49.7188 11.1064 49.5772 11.4482 49.3252 11.7002C49.0732 11.9522 48.7314 12.0938 48.375 12.0938C48.0186 12.0938 47.6768 11.9522 47.4248 11.7002C47.1728 11.4482 47.0312 11.1064 47.0312 10.75ZM75.25 41.6562H84.6562C85.0126 41.6562 85.3544 41.7978 85.6064 42.0498C85.8584 42.3018 86 42.6436 86 43C86 43.3564 85.8584 43.6982 85.6064 43.9502C85.3544 44.2022 85.0126 44.3438 84.6562 44.3438H75.25C74.8936 44.3438 74.5518 44.2022 74.2998 43.9502C74.0478 43.6982 73.9062 43.3564 73.9062 43C73.9062 42.6436 74.0478 42.3018 74.2998 42.0498C74.5518 41.7978 74.8936 41.6562 75.25 41.6562ZM75.25 36.2812H84.6562C85.0126 36.2812 85.3544 36.4228 85.6064 36.6748C85.8584 36.9268 86 37.2686 86 37.625C86 37.9814 85.8584 38.3232 85.6064 38.5752C85.3544 38.8272 85.0126 38.9688 84.6562 38.9688H75.25C74.8936 38.9688 74.5518 38.8272 74.2998 38.5752C74.0478 38.3232 73.9062 37.9814 73.9062 37.625C73.9062 37.2686 74.0478 36.9268 74.2998 36.6748C74.5518 36.4228 74.8936 36.2812 75.25 36.2812ZM75.25 30.9062H84.6562C85.0126 30.9062 85.3544 31.0478 85.6064 31.2998C85.8584 31.5518 86 31.8936 86 32.25C86 32.6064 85.8584 32.9482 85.6064 33.2002C85.3544 33.4522 85.0126 33.5938 84.6562 33.5938H75.25C74.8936 33.5938 74.5518 33.4522 74.2998 33.2002C74.0478 32.9482 73.9062 32.6064 73.9062 32.25C73.9062 31.8936 74.0478 31.5518 74.2998 31.2998C74.5518 31.0478 74.8936 30.9062 75.25 30.9062ZM75.25 25.5312H84.6562C85.0126 25.5312 85.3544 25.6728 85.6064 25.9248C85.8584 26.1768 86 26.5186 86 26.875C86 27.2314 85.8584 27.5732 85.6064 27.8252C85.3544 28.0772 85.0126 28.2188 84.6562 28.2188H75.25C74.8936 28.2188 74.5518 28.0772 74.2998 27.8252C74.0478 27.5732 73.9062 27.2314 73.9062 26.875C73.9062 26.5186 74.0478 26.1768 74.2998 25.9248C74.5518 25.6728 74.8936 25.5312 75.25 25.5312ZM75.25 20.1562H84.6562C85.0126 20.1562 85.3544 20.2978 85.6064 20.5498C85.8584 20.8018 86 21.1436 86 21.5C86 21.8564 85.8584 22.1982 85.6064 22.4502C85.3544 22.7022 85.0126 22.8438 84.6562 22.8438H75.25C74.8936 22.8438 74.5518 22.7022 74.2998 22.4502C74.0478 22.1982 73.9062 21.8564 73.9062 21.5C73.9062 21.1436 74.0478 20.8018 74.2998 20.5498C74.5518 20.2978 74.8936 20.1562 75.25 20.1562ZM75.25 63.1562H84.6562C85.0126 63.1562 85.3544 63.2978 85.6064 63.5498C85.8584 63.8018 86 64.1436 86 64.5C86 64.8564 85.8584 65.1982 85.6064 65.4502C85.3544 65.7022 85.0126 65.8438 84.6562 65.8438H75.25C74.8936 65.8438 74.5518 65.7022 74.2998 65.4502C74.0478 65.1982 73.9062 64.8564 73.9062 64.5C73.9062 64.1436 74.0478 63.8018 74.2998 63.5498C74.5518 63.2978 74.8936 63.1562 75.25 63.1562ZM75.25 57.7812H84.6562C85.0126 57.7812 85.3544 57.9228 85.6064 58.1748C85.8584 58.4268 86 58.7686 86 59.125C86 59.4814 85.8584 59.8232 85.6064 60.0752C85.3544 60.3272 85.0126 60.4688 84.6562 60.4688H75.25C74.8936 60.4688 74.5518 60.3272 74.2998 60.0752C74.0478 59.8232 73.9062 59.4814 73.9062 59.125C73.9062 58.7686 74.0478 58.4268 74.2998 58.1748C74.5518 57.9228 74.8936 57.7812 75.25 57.7812ZM75.25 52.4062H84.6562C85.0126 52.4062 85.3544 52.5478 85.6064 52.7998C85.8584 53.0518 86 53.3936 86 53.75C86 54.1064 85.8584 54.4482 85.6064 54.7002C85.3544 54.9522 85.0126 55.0938 84.6562 55.0938H75.25C74.8936 55.0938 74.5518 54.9522 74.2998 54.7002C74.0478 54.4482 73.9062 54.1064 73.9062 53.75C73.9062 53.3936 74.0478 53.0518 74.2998 52.7998C74.5518 52.5478 74.8936 52.4062 75.25 52.4062ZM75.25 47.0312H84.6562C85.0126 47.0312 85.3544 47.1728 85.6064 47.4248C85.8584 47.6768 86 48.0186 86 48.375C86 48.7314 85.8584 49.0732 85.6064 49.3252C85.3544 49.5772 85.0126 49.7188 84.6562 49.7188H75.25C74.8936 49.7188 74.5518 49.5772 74.2998 49.3252C74.0478 49.0732 73.9062 48.7314 73.9062 48.375C73.9062 48.0186 74.0478 47.6768 74.2998 47.4248C74.5518 47.1728 74.8936 47.0312 75.25 47.0312ZM44.3438 75.25V84.6562C44.3438 85.0126 44.2022 85.3544 43.9502 85.6064C43.6982 85.8584 43.3564 86 43 86C42.6436 86 42.3018 85.8584 42.0498 85.6064C41.7978 85.3544 41.6562 85.0126 41.6562 84.6562V75.25C41.6562 74.8936 41.7978 74.5518 42.0498 74.2998C42.3018 74.0478 42.6436 73.9062 43 73.9062C43.3564 73.9062 43.6982 74.0478 43.9502 74.2998C44.2022 74.5518 44.3438 74.8936 44.3438 75.25ZM49.7188 75.25V84.6562C49.7188 85.0126 49.5772 85.3544 49.3252 85.6064C49.0732 85.8584 48.7314 86 48.375 86C48.0186 86 47.6768 85.8584 47.4248 85.6064C47.1728 85.3544 47.0312 85.0126 47.0312 84.6562V75.25C47.0312 74.8936 47.1728 74.5518 47.4248 74.2998C47.6768 74.0478 48.0186 73.9062 48.375 73.9062C48.7314 73.9062 49.0732 74.0478 49.3252 74.2998C49.5772 74.5518 49.7188 74.8936 49.7188 75.25ZM55.0938 75.25V84.6562C55.0938 85.0126 54.9522 85.3544 54.7002 85.6064C54.4482 85.8584 54.1064 86 53.75 86C53.3936 86 53.0518 85.8584 52.7998 85.6064C52.5478 85.3544 52.4062 85.0126 52.4062 84.6562V75.25C52.4062 74.8936 52.5478 74.5518 52.7998 74.2998C53.0518 74.0478 53.3936 73.9062 53.75 73.9062C54.1064 73.9062 54.4482 74.0478 54.7002 74.2998C54.9522 74.5518 55.0938 74.8936 55.0938 75.25ZM60.4688 75.25V84.6562C60.4688 85.0126 60.3272 85.3544 60.0752 85.6064C59.8232 85.8584 59.4814 86 59.125 86C58.7686 86 58.4268 85.8584 58.1748 85.6064C57.9228 85.3544 57.7812 85.0126 57.7812 84.6562V75.25C57.7812 74.8936 57.9228 74.5518 58.1748 74.2998C58.4268 74.0478 58.7686 73.9062 59.125 73.9062C59.4814 73.9062 59.8232 74.0478 60.0752 74.2998C60.3272 74.5518 60.4688 74.8936 60.4688 75.25ZM65.8438 75.25V84.6562C65.8438 85.0126 65.7022 85.3544 65.4502 85.6064C65.1982 85.8584 64.8564 86 64.5 86C64.1436 86 63.8018 85.8584 63.5498 85.6064C63.2978 85.3544 63.1562 85.0126 63.1562 84.6562V75.25C63.1562 74.8936 63.2978 74.5518 63.5498 74.2998C63.8018 74.0478 64.1436 73.9062 64.5 73.9062C64.8564 73.9062 65.1982 74.0478 65.4502 74.2998C65.7022 74.5518 65.8438 74.8936 65.8438 75.25ZM22.8438 75.25V84.6562C22.8438 85.0126 22.7022 85.3544 22.4502 85.6064C22.1982 85.8584 21.8564 86 21.5 86C21.1436 86 20.8018 85.8584 20.5498 85.6064C20.2978 85.3544 20.1562 85.0126 20.1562 84.6562V75.25C20.1562 74.8936 20.2978 74.5518 20.5498 74.2998C20.8018 74.0478 21.1436 73.9062 21.5 73.9062C21.8564 73.9062 22.1982 74.0478 22.4502 74.2998C22.7022 74.5518 22.8438 74.8936 22.8438 75.25ZM28.2188 75.25V84.6562C28.2188 85.0126 28.0772 85.3544 27.8252 85.6064C27.5732 85.8584 27.2314 86 26.875 86C26.5186 86 26.1768 85.8584 25.9248 85.6064C25.6728 85.3544 25.5312 85.0126 25.5312 84.6562V75.25C25.5312 74.8936 25.6728 74.5518 25.9248 74.2998C26.1768 74.0478 26.5186 73.9062 26.875 73.9062C27.2314 73.9062 27.5732 74.0478 27.8252 74.2998C28.0772 74.5518 28.2188 74.8936 28.2188 75.25ZM33.5938 75.25V84.6562C33.5938 85.0126 33.4522 85.3544 33.2002 85.6064C32.9482 85.8584 32.6064 86 32.25 86C31.8936 86 31.5518 85.8584 31.2998 85.6064C31.0478 85.3544 30.9062 85.0126 30.9062 84.6562V75.25C30.9062 74.8936 31.0478 74.5518 31.2998 74.2998C31.5518 74.0478 31.8936 73.9062 32.25 73.9062C32.6064 73.9062 32.9482 74.0478 33.2002 74.2998C33.4522 74.5518 33.5938 74.8936 33.5938 75.25ZM38.9688 75.25V84.6562C38.9688 85.0126 38.8272 85.3544 38.5752 85.6064C38.3232 85.8584 37.9814 86 37.625 86C37.2686 86 36.9268 85.8584 36.6748 85.6064C36.4228 85.3544 36.2812 85.0126 36.2812 84.6562V75.25C36.2812 74.8936 36.4228 74.5518 36.6748 74.2998C36.9268 74.0478 37.2686 73.9062 37.625 73.9062C37.9814 73.9062 38.3232 74.0478 38.5752 74.2998C38.8272 74.5518 38.9688 74.8936 38.9688 75.25ZM10.75 44.3438H1.34375C0.987365 44.3438 0.645577 44.2022 0.393575 43.9502C0.141573 43.6982 0 43.3564 0 43C0 42.6436 0.141573 42.3018 0.393575 42.0498C0.645577 41.7978 0.987365 41.6562 1.34375 41.6562H10.75C11.1064 41.6562 11.4482 41.7978 11.7002 42.0498C11.9522 42.3018 12.0938 42.6436 12.0938 43C12.0938 43.3564 11.9522 43.6982 11.7002 43.9502C11.4482 44.2022 11.1064 44.3438 10.75 44.3438ZM10.75 49.7188H1.34375C0.987365 49.7188 0.645577 49.5772 0.393575 49.3252C0.141573 49.0732 0 48.7314 0 48.375C0 48.0186 0.141573 47.6768 0.393575 47.4248C0.645577 47.1728 0.987365 47.0312 1.34375 47.0312H10.75C11.1064 47.0312 11.4482 47.1728 11.7002 47.4248C11.9522 47.6768 12.0938 48.0186 12.0938 48.375C12.0938 48.7314 11.9522 49.0732 11.7002 49.3252C11.4482 49.5772 11.1064 49.7188 10.75 49.7188ZM10.75 55.0938H1.34375C0.987365 55.0938 0.645577 54.9522 0.393575 54.7002C0.141573 54.4482 0 54.1064 0 53.75C0 53.3936 0.141573 53.0518 0.393575 52.7998C0.645577 52.5478 0.987365 52.4062 1.34375 52.4062H10.75C11.1064 52.4062 11.4482 52.5478 11.7002 52.7998C11.9522 53.0518 12.0938 53.3936 12.0938 53.75C12.0938 54.1064 11.9522 54.4482 11.7002 54.7002C11.4482 54.9522 11.1064 55.0938 10.75 55.0938ZM10.75 60.4688H1.34375C0.987365 60.4688 0.645577 60.3272 0.393575 60.0752C0.141573 59.8232 0 59.4814 0 59.125C0 58.7686 0.141573 58.4268 0.393575 58.1748C0.645577 57.9228 0.987365 57.7812 1.34375 57.7812H10.75C11.1064 57.7812 11.4482 57.9228 11.7002 58.1748C11.9522 58.4268 12.0938 58.7686 12.0938 59.125C12.0938 59.4814 11.9522 59.8232 11.7002 60.0752C11.4482 60.3272 11.1064 60.4688 10.75 60.4688ZM10.75 65.8438H1.34375C0.987365 65.8438 0.645577 65.7022 0.393575 65.4502C0.141573 65.1982 0 64.8564 0 64.5C0 64.1436 0.141573 63.8018 0.393575 63.5498C0.645577 63.2978 0.987365 63.1562 1.34375 63.1562H10.75C11.1064 63.1562 11.4482 63.2978 11.7002 63.5498C11.9522 63.8018 12.0938 64.1436 12.0938 64.5C12.0938 64.8564 11.9522 65.1982 11.7002 65.4502C11.4482 65.7022 11.1064 65.8438 10.75 65.8438ZM10.75 22.8438H1.34375C0.987365 22.8438 0.645577 22.7022 0.393575 22.4502C0.141573 22.1982 0 21.8564 0 21.5C0 21.1436 0.141573 20.8018 0.393575 20.5498C0.645577 20.2978 0.987365 20.1562 1.34375 20.1562H10.75C11.1064 20.1562 11.4482 20.2978 11.7002 20.5498C11.9522 20.8018 12.0938 21.1436 12.0938 21.5C12.0938 21.8564 11.9522 22.1982 11.7002 22.4502C11.4482 22.7022 11.1064 22.8438 10.75 22.8438ZM10.75 28.2188H1.34375C0.987365 28.2188 0.645577 28.0772 0.393575 27.8252C0.141573 27.5732 0 27.2314 0 26.875C0 26.5186 0.141573 26.1768 0.393575 25.9248C0.645577 25.6728 0.987365 25.5312 1.34375 25.5312H10.75C11.1064 25.5312 11.4482 25.6728 11.7002 25.9248C11.9522 26.1768 12.0938 26.5186 12.0938 26.875C12.0938 27.2314 11.9522 27.5732 11.7002 27.8252C11.4482 28.0772 11.1064 28.2188 10.75 28.2188ZM10.75 33.5938H1.34375C0.987365 33.5938 0.645577 33.4522 0.393575 33.2002C0.141573 32.9482 0 32.6064 0 32.25C0 31.8936 0.141573 31.5518 0.393575 31.2998C0.645577 31.0478 0.987365 30.9062 1.34375 30.9062H10.75C11.1064 30.9062 11.4482 31.0478 11.7002 31.2998C11.9522 31.5518 12.0938 31.8936 12.0938 32.25C12.0938 32.6064 11.9522 32.9482 11.7002 33.2002C11.4482 33.4522 11.1064 33.5938 10.75 33.5938ZM10.75 38.9688H1.34375C0.987365 38.9688 0.645577 38.8272 0.393575 38.5752C0.141573 38.3232 0 37.9814 0 37.625C0 37.2686 0.141573 36.9268 0.393575 36.6748C0.645577 36.4228 0.987365 36.2812 1.34375 36.2812H10.75C11.1064 36.2812 11.4482 36.4228 11.7002 36.6748C11.9522 36.9268 12.0938 37.2686 12.0938 37.625C12.0938 37.9814 11.9522 38.3232 11.7002 38.5752C11.4482 38.8272 11.1064 38.9688 10.75 38.9688Z" fill="var(--fill-0, #D9D9D9)"/>
</g>
<path id="Vector_2" d="M67.1875 10.75H18.8125C14.3597 10.75 10.75 14.3597 10.75 18.8125V67.1875C10.75 71.6403 14.3597 75.25 18.8125 75.25H67.1875C71.6403 75.25 75.25 71.6403 75.25 67.1875V18.8125C75.25 14.3597 71.6403 10.75 67.1875 10.75Z" fill="var(--fill-0, #FFAC00)"/>
<path id="Vector_3" d="M65.8438 17.4688H20.1562C18.672 17.4688 17.4688 18.672 17.4688 20.1562V65.8438C17.4688 67.328 18.672 68.5312 20.1562 68.5312H65.8438C67.328 68.5312 68.5312 67.328 68.5312 65.8438V20.1562C68.5312 18.672 67.328 17.4688 65.8438 17.4688Z" fill="var(--fill-0, #F3F3F3)"/>
<path id="Vector_4" d="M60.4688 24.1875H25.5312C24.7891 24.1875 24.1875 24.7891 24.1875 25.5312V60.4688C24.1875 61.2109 24.7891 61.8125 25.5312 61.8125H60.4688C61.2109 61.8125 61.8125 61.2109 61.8125 60.4688V25.5312C61.8125 24.7891 61.2109 24.1875 60.4688 24.1875Z" fill="var(--fill-0, #50D9D7)"/>
<path id="Vector_5" d="M29.5625 32.25C31.0468 32.25 32.25 31.0468 32.25 29.5625C32.25 28.0782 31.0468 26.875 29.5625 26.875C28.0782 26.875 26.875 28.0782 26.875 29.5625C26.875 31.0468 28.0782 32.25 29.5625 32.25Z" fill="var(--fill-0, #F3F3F3)"/>
<path id="Vector_6" d="M56.4375 59.125C57.9218 59.125 59.125 57.9218 59.125 56.4375C59.125 54.9532 57.9218 53.75 56.4375 53.75C54.9532 53.75 53.75 54.9532 53.75 56.4375C53.75 57.9218 54.9532 59.125 56.4375 59.125Z" fill="var(--fill-0, #F3F3F3)"/>
<path id="Vector_7" d="M41.6562 17.4688H44.3438V24.1875H41.6562V17.4688ZM36.2812 17.4688H38.9688V24.1875H36.2812V17.4688ZM30.9062 17.4688H33.5938V24.1875H30.9062V17.4688ZM52.4062 17.4688H55.0938V24.1875H52.4062V17.4688ZM47.0312 17.4688H49.7188V24.1875H47.0312V17.4688ZM41.6562 61.8125H44.3438V68.5312H41.6562V61.8125ZM36.2812 61.8125H38.9688V68.5312H36.2812V61.8125ZM30.9062 61.8125H33.5938V68.5312H30.9062V61.8125ZM52.4062 61.8125H55.0938V68.5312H52.4062V61.8125ZM47.0312 61.8125H49.7188V68.5312H47.0312V61.8125Z" fill="var(--fill-0, #FFAC00)"/>
<path id="Vector_8" d="M41.5624 35.7834C41.4634 35.5328 41.2912 35.3177 41.0684 35.1662C40.8455 35.0146 40.5822 34.9336 40.3127 34.9336C40.0432 34.9336 39.78 35.0146 39.5571 35.1662C39.3342 35.3177 39.1621 35.5328 39.063 35.7834L33.688 49.2209C33.6228 49.385 33.5904 49.5604 33.5929 49.737C33.5954 49.9136 33.6326 50.088 33.7025 50.2502C33.7724 50.4124 33.8735 50.5593 34.0002 50.6824C34.1268 50.8055 34.2764 50.9025 34.4405 50.9678C34.6047 51.0331 34.78 51.0654 34.9566 51.063C35.1332 51.0605 35.3076 51.0232 35.4698 50.9534C35.632 50.8835 35.7789 50.7823 35.902 50.6557C36.0252 50.5291 36.1221 50.3794 36.1874 50.2153L37.5312 47.0037H43.054C43.2824 47.0037 43.054 46.4797 44.4918 50.1884C44.6237 50.5199 44.8818 50.7854 45.2094 50.9265C45.537 51.0676 45.9072 51.0728 46.2387 50.9409C46.5701 50.8091 46.8356 50.551 46.9767 50.2233C47.1178 49.8957 47.123 49.5255 46.9912 49.1941L41.5624 35.7834ZM38.539 44.3431L40.3127 39.8953L42.0865 44.3431H38.539ZM49.719 36.2806V49.7181C49.719 50.0745 49.8606 50.4163 50.1126 50.6683C50.3646 50.9203 50.7063 51.0619 51.0627 51.0619C51.4191 51.0619 51.7609 50.9203 52.0129 50.6683C52.2649 50.4163 52.4065 50.0745 52.4065 49.7181V36.2806C52.4065 35.9242 52.2649 35.5825 52.0129 35.3304C51.7609 35.0784 51.4191 34.9369 51.0627 34.9369C50.7063 34.9369 50.3646 35.0784 50.1126 35.3304C49.8606 35.5825 49.719 35.9242 49.719 36.2806Z" fill="var(--fill-0, #FDFDFD)"/>
</g>
</svg>
