<svg preserveAspectRatio="none" width="100%" height="100%" overflow="visible" style="display: block;" viewBox="0 0 103.372 28.0639" fill="none" xmlns="http://www.w3.org/2000/svg">
<g id="logos:zapier" clip-path="url(#clip0_2_958)">
<path id="Vector" d="M24.2165 19.2383L24.202 19.1922L33.372 10.7589V6.69548H18.66V10.7589H27.4475L27.462 10.7977L18.3814 19.2383V23.3017H33.5198V19.2383H24.2165ZM42.5517 6.30836C40.8548 6.30836 39.4718 6.56549 38.4027 7.07976C37.4069 7.52789 36.5681 8.26625 35.9951 9.19907C35.4468 10.1379 35.1026 11.1827 34.9851 12.2648L39.449 12.8952C39.6106 11.9398 39.9336 11.2625 40.4179 10.8635C40.9123 10.489 41.5111 10.2797 42.1301 10.2649L42.3362 10.2673C43.2422 10.2673 43.8994 10.5106 44.3076 10.9972C44.7125 11.4839 44.9184 12.1578 44.9184 13.0459V13.4889H40.626C38.4413 13.4889 36.8718 13.9755 35.9174 14.9487C34.9629 15.9219 34.4866 17.2066 34.4884 18.8029C34.4884 20.4379 34.9647 21.6546 35.9174 22.4528C36.8702 23.2508 38.0683 23.6474 39.5118 23.6427C41.3027 23.6427 42.6801 23.0238 43.6439 21.786C44.2132 21.0255 44.6198 20.1548 44.838 19.2288H45.0004L45.6156 23.2922H49.6604V13.0022C49.6604 10.8754 49.1026 9.22814 47.9869 8.06039C46.8709 6.89237 45.0591 6.30836 42.5515 6.30836M43.9662 18.9927C43.3242 19.5305 42.4836 19.7981 41.4373 19.7981C40.5752 19.7981 39.9762 19.6464 39.6403 19.3432C39.4767 19.1996 39.3465 19.0217 39.2589 18.8219C39.1714 18.6221 39.1287 18.4055 39.1339 18.1873C39.1243 17.9815 39.1565 17.776 39.2286 17.5832C39.3006 17.3903 39.4109 17.2142 39.5529 17.0656C39.8234 16.8108 40.1756 16.6613 40.546 16.6441L44.9252 16.6447V16.9246C44.9338 17.32 44.8517 17.7122 44.6854 18.0708C44.5191 18.4294 44.2731 18.7448 43.9662 18.9927ZM74.1192 6.69527H69.3405V23.3044H74.1192V6.69527ZM102.334 6.69527C100.984 6.69527 99.9201 7.17379 99.1417 8.13081C98.5833 8.8187 98.1588 9.83502 97.868 11.1798H97.7274L97.1024 6.69548H93.0213V23.3019H97.8004V14.7856C97.8004 13.7119 98.0506 12.8887 98.5511 12.316C99.0518 11.7433 99.9753 11.457 101.322 11.457H103.136V6.69548L102.334 6.69527ZM88.2786 7.238C87.1631 6.57129 85.7559 6.23875 84.0571 6.24037C81.3829 6.24037 79.2903 7.00515 77.7791 8.53472C76.2675 10.0646 75.5118 12.1734 75.5119 14.8611C75.4732 16.4862 75.8263 18.0965 76.5413 19.5548C77.1955 20.8543 78.2143 21.9328 79.472 22.657C80.7377 23.392 82.2435 23.7603 83.9894 23.7619C85.499 23.7619 86.76 23.5283 87.7724 23.0611C88.7243 22.6415 89.5532 21.9838 90.1802 21.1508C90.7768 20.3332 91.22 19.413 91.4879 18.4356L87.3705 17.2773C87.197 17.9129 86.8633 18.4928 86.4016 18.9611C85.9363 19.4283 85.1572 19.6619 84.0643 19.6619C82.7644 19.6619 81.7955 19.288 81.1576 18.5402C80.6949 17.9999 80.4042 17.2287 80.2761 16.2286H91.551C91.5973 15.7614 91.6215 15.3696 91.6215 15.0533V14.0193C91.6485 12.6301 91.3629 11.2527 90.7859 9.98989C90.2455 8.83954 89.3715 7.8802 88.2786 7.2378M83.9193 10.1989C85.8569 10.1989 86.9556 11.1568 87.2154 13.0724H80.3609C80.4699 12.4333 80.7336 11.8309 81.1288 11.3182C81.7571 10.5704 82.6873 10.1973 83.9193 10.1989ZM71.7819 0.0016184C71.4224 -0.0107231 71.0641 0.0496839 70.7283 0.179248C70.3924 0.308811 70.086 0.504886 69.8271 0.755813C69.3644 1.2156 69.0907 1.83344 69.0605 2.4866L69.0595 2.70231C69.0465 3.06485 69.1081 3.42619 69.2404 3.76375C69.3727 4.10131 69.5728 4.40784 69.8283 4.66419C70.2917 5.12945 70.9113 5.40399 71.5657 5.43396L71.7819 5.43498C72.1405 5.4486 72.498 5.38705 72.8316 5.25424C73.1653 5.12143 73.4677 4.92027 73.7197 4.66358C74.1734 4.19363 74.4395 3.57268 74.4674 2.91863L74.4683 2.70231C74.4848 2.34378 74.4267 1.98574 74.2976 1.65105C74.1685 1.3164 73.9714 1.01236 73.7191 0.758241C73.4664 0.504428 73.1639 0.306281 72.8308 0.176429C72.4977 0.0465775 72.1413 -0.0121307 71.7843 0.00404671L71.7819 0.0016184ZM61.9094 6.24037C60.2818 6.24037 58.9739 6.75369 57.9856 7.78033C57.254 8.5412 56.7171 9.67677 56.3749 11.1871H56.2224L55.5974 6.70276H51.5163V28.076H56.2948V19.2725H56.4692C56.6149 19.8595 56.8194 20.4302 57.0796 20.9758C57.484 21.8645 58.147 22.6093 58.9811 23.1121C59.8459 23.5866 60.8203 23.8226 61.8053 23.7961C63.8058 23.7961 65.3292 23.0134 66.3755 21.4479C67.422 19.8824 67.9453 17.6982 67.9453 14.8953C67.9452 12.1879 67.439 10.0685 66.4269 8.53715C65.4143 7.00596 63.9085 6.24037 61.9094 6.24037ZM62.3939 18.2749C61.8738 19.032 61.0794 19.4357 60.0109 19.486L59.7778 19.4915C59.2885 19.5143 58.8008 19.4195 58.3552 19.2152C57.9096 19.0108 57.5189 18.7027 57.2155 18.3164C56.5969 17.5361 56.2884 16.4679 56.2901 15.1118V14.7955C56.2901 13.4181 56.5985 12.3637 57.2153 11.6322C57.8321 10.9006 58.6862 10.5389 59.7776 10.547C60.9857 10.547 61.8634 10.9323 62.4108 11.7029C62.9583 12.4735 63.232 13.5481 63.2319 14.9269C63.2354 16.3527 62.9576 17.4687 62.3985 18.2749H62.3939Z" fill="var(--fill-0, white)"/>
<path id="Vector_2" d="M16.5334 19.2385H2.73438e-05V23.3068H16.5334V19.2385Z" fill="var(--fill-0, white)"/>
</g>
<defs>
<clipPath id="clip0_2_958">
<rect width="103.372" height="28.0639" fill="white"/>
</clipPath>
</defs>
</svg>
