<svg preserveAspectRatio="none" width="100%" height="100%" overflow="visible" style="display: block;" viewBox="0 0 125.364 28.4027" fill="none" xmlns="http://www.w3.org/2000/svg">
<g id="logos:snowflake" clip-path="url(#clip0_2_924)">
<path id="Vector" d="M78.2979 8.77763L78.2942 8.77521C78.2942 8.77521 78.2922 8.774 78.2897 8.774C78.2042 8.73781 78.1121 8.71893 78.019 8.71847C77.8738 8.72013 77.7318 8.76098 77.6086 8.83656C77.4792 8.91466 77.3774 9.02986 77.3169 9.16658V9.16997L74.4526 16.7902L72.245 11.6826L72.2418 11.6804C72.1797 11.5376 72.0685 11.4272 71.9424 11.3506C71.8135 11.2725 71.665 11.2311 71.5135 11.2311C71.3632 11.2311 71.2232 11.2769 71.0994 11.3516C70.9777 11.4282 70.8677 11.5376 70.8059 11.6804L70.8044 11.6828L68.5923 16.7936L65.7127 9.17676H65.7102C65.6612 9.03666 65.5645 8.91738 65.4363 8.83898C65.3114 8.76131 65.1667 8.71956 65.0188 8.71847C64.922 8.71874 64.8261 8.7376 64.7367 8.774H64.7323L64.729 8.77763C64.5993 8.83639 64.4895 8.93043 64.4126 9.04859C64.3358 9.16675 64.2951 9.30406 64.2954 9.44422C64.2956 9.53361 64.3135 9.62236 64.3491 9.71047H64.3481L67.8905 18.9563V18.9595C67.9179 19.0284 67.9567 19.0967 68.0141 19.1637C68.0556 19.2114 68.1167 19.2517 68.1795 19.2851C68.2241 19.3281 68.2815 19.3561 68.3434 19.3652C68.4064 19.3858 68.4902 19.4154 68.6025 19.4154C68.7458 19.4154 68.8788 19.3652 68.998 19.2907C69.1187 19.2135 69.2117 19.1013 69.2643 18.9697L69.2734 18.9629L71.5132 13.758L73.7562 18.9418H73.7587C73.8104 19.08 73.9011 19.1881 74.0064 19.265C74.1177 19.3462 74.2425 19.3964 74.3748 19.4154H74.4687C74.5582 19.4154 74.6452 19.3989 74.7184 19.371C74.7865 19.3449 74.8506 19.3096 74.9088 19.2662C75.0288 19.1757 75.1223 19.0555 75.1797 18.918V18.9151L78.6994 9.71047C78.7341 9.62252 78.7516 9.53426 78.7518 9.44567C78.751 9.303 78.7076 9.16368 78.6269 9.04495C78.5462 8.92622 78.4318 8.83328 78.2979 8.77763ZM62.1048 14.056C62.1048 12.9702 61.6759 11.9869 60.9938 11.2769C60.3078 10.5655 59.3787 10.1307 58.3698 10.1307C57.3604 10.1307 56.4292 10.5655 55.7446 11.2769C55.061 11.9869 54.6321 12.9702 54.6321 14.0558C54.6321 15.1406 55.061 16.1147 55.7446 16.8201C56.4294 17.5281 57.3604 17.9563 58.3698 17.9563C59.3787 17.9563 60.311 17.5284 60.9938 16.8203C61.6761 16.1147 62.1048 15.1406 62.1048 14.056ZM62.0853 10.2868C63.0326 11.2633 63.6081 12.6033 63.6106 14.056C63.6081 15.5085 63.0326 16.847 62.0853 17.8237C61.1451 18.799 59.8319 19.4156 58.3721 19.4156C56.9233 19.4156 55.6081 18.799 54.6645 17.8237C53.6819 16.8057 53.1343 15.457 53.1343 14.0552C53.1343 12.6533 53.6819 11.3046 54.6645 10.2866C55.6081 9.31255 56.9233 8.69592 58.3721 8.69592C59.8319 8.69592 61.1451 9.31279 62.0853 10.2868ZM47.1711 8.71483C45.9968 8.71483 44.9246 9.15979 44.1241 9.86978V9.44543C44.1244 9.25546 44.0504 9.07259 43.9174 8.93452C43.85 8.86534 43.7691 8.81022 43.6795 8.77247C43.5898 8.73471 43.4933 8.71511 43.3958 8.71483C43.2955 8.714 43.196 8.73288 43.1032 8.77036C43.0104 8.80784 42.9262 8.86316 42.8556 8.93307C42.72 9.07044 42.6444 9.25424 42.6447 9.44543V18.9059L42.6756 18.936L42.6769 18.9406C42.6848 18.9719 42.7053 19.006 42.7271 19.0395C42.8312 19.2181 43.0024 19.3497 43.2042 19.4061L43.2339 19.4154H43.3958C43.5036 19.4154 43.6123 19.393 43.7157 19.346C43.8017 19.306 43.8818 19.2415 43.9461 19.1588L43.9486 19.16C43.9565 19.1523 43.9589 19.1421 43.9681 19.1346C43.9717 19.1327 43.9747 19.1299 43.977 19.1266C44.017 19.0764 44.0507 19.0252 44.0712 18.9772C44.0893 18.9275 44.1047 18.8769 44.1172 18.8256L44.1241 18.7987V13.1183C44.1434 12.3342 44.4723 11.588 45.0415 11.0371C45.6065 10.4835 46.3725 10.1727 47.1711 10.1731C48.0153 10.1731 48.7683 10.5034 49.3145 11.0371C49.5942 11.3081 49.8161 11.631 49.9673 11.987C50.1185 12.343 50.1959 12.7249 50.195 13.1106V18.6889C50.195 18.8926 50.2845 19.0812 50.42 19.2102C50.5622 19.3418 50.7503 19.4151 50.9458 19.4151C51.1413 19.4151 51.3295 19.3418 51.4717 19.2102C51.6114 19.0812 51.6964 18.8926 51.6964 18.6889V13.1106C51.6964 10.7027 49.6734 8.71847 47.1711 8.71507M121.098 13.0213C120.671 11.3392 119.152 10.1406 117.418 10.1443C115.641 10.1443 114.142 11.3169 113.677 13.0213H121.098ZM122.741 13.7105V13.7827C122.741 13.9845 122.648 14.1663 122.508 14.2856C122.368 14.4059 122.185 14.4685 121.989 14.4706H113.573C113.787 16.4668 115.427 17.9411 117.385 17.9563H117.881C118.529 17.9585 119.16 17.741 119.715 17.3812C120.271 17.0247 120.752 16.5262 121.09 15.9777C121.156 15.8666 121.252 15.7762 121.368 15.7168C121.476 15.6598 121.597 15.6303 121.719 15.6309C121.852 15.6309 121.984 15.6644 122.1 15.7323L122.108 15.7357L122.117 15.7425C122.329 15.8928 122.461 16.1227 122.461 16.3746C122.461 16.5026 122.426 16.6333 122.354 16.7512L122.352 16.756L122.349 16.758C121.879 17.4849 121.238 18.1481 120.476 18.6287C119.714 19.1101 118.83 19.4156 117.881 19.4156H117.377C115.9 19.4054 114.565 18.799 113.602 17.8293C112.605 16.825 112.048 15.4779 112.051 14.0761C112.051 12.5921 112.647 11.2456 113.615 10.2713C114.583 9.29824 115.928 8.69616 117.418 8.69616C118.84 8.69616 120.118 9.24563 121.064 10.1455C122.01 11.0451 122.628 12.2944 122.738 13.7003L122.741 13.7105ZM88.2188 4.29292C88.0136 4.29292 87.8257 4.37657 87.6905 4.508C87.6207 4.57502 87.5652 4.65498 87.5272 4.74324C87.4892 4.83149 87.4695 4.92627 87.4692 5.02206V18.6889C87.4692 18.8882 87.5547 19.071 87.6905 19.2005C87.8317 19.3364 88.021 19.4135 88.2188 19.4156C88.6442 19.4156 88.9884 19.0899 88.9908 18.6889V5.02182C88.9884 4.6193 88.6442 4.29267 88.2188 4.29267M39.1743 13.7948C38.5686 13.5174 37.8818 13.3123 37.1963 13.0916C36.5654 12.8843 35.9253 12.708 35.4687 12.4762C35.2395 12.3569 35.0608 12.2311 34.9449 12.0895C34.8267 11.9481 34.7693 11.8041 34.7659 11.6079C34.7671 11.3392 34.8475 11.1229 34.9827 10.9314C35.1879 10.6448 35.532 10.4217 35.908 10.2776C36.2796 10.1334 36.6823 10.0652 36.9701 10.0652C37.821 10.0664 38.359 10.3416 38.7718 10.6268C38.9758 10.7708 39.1481 10.9166 39.3107 11.0371C39.3945 11.0996 39.4724 11.1564 39.5632 11.1986C39.6489 11.2398 39.75 11.2735 39.8601 11.2735C39.93 11.2735 40.0002 11.2611 40.064 11.2347C40.1318 11.208 40.1903 11.1697 40.2467 11.1232C40.3025 11.0727 40.3484 11.0125 40.3819 10.9457C40.4108 10.8791 40.4256 10.8075 40.4255 10.7352C40.4255 10.6057 40.3829 10.4842 40.3221 10.3703C40.2086 10.1697 40.0341 9.97817 39.8119 9.78636C39.4816 9.50096 39.046 9.22889 38.5768 9.024C38.1063 8.81886 37.602 8.67943 37.1214 8.67943C36.0079 8.67943 35.0779 8.92458 34.4022 9.37632C34.0502 9.6125 33.7407 9.87099 33.5216 10.2279C33.2991 10.5856 33.1753 11.0271 33.1592 11.6011C33.1584 11.627 33.158 11.6526 33.1582 11.678C33.1557 12.2357 33.3404 12.6949 33.6304 13.0548C34.0709 13.5967 34.7248 13.9209 35.3659 14.1508C36.0057 14.3802 36.6455 14.5174 37.0494 14.6489C37.618 14.8327 38.2225 15.0322 38.6628 15.2963C38.8821 15.4314 39.0596 15.5764 39.1802 15.7357C39.2971 15.8996 39.3632 16.0688 39.3659 16.2832V16.299C39.3646 16.6086 39.2709 16.8518 39.1159 17.0601C38.8821 17.37 38.4929 17.5972 38.0801 17.741C37.6687 17.8816 37.2408 17.9411 36.9654 17.9411C35.9941 17.9411 35.3441 17.7131 34.8727 17.4852C34.6363 17.37 34.445 17.2563 34.2717 17.1603C34.1904 17.1152 34.1065 17.0747 34.0205 17.039C33.935 17.003 33.8431 16.9843 33.7501 16.984C33.6857 16.9836 33.6218 16.9949 33.5617 17.0174C33.5008 17.0428 33.4449 17.0783 33.3965 17.1224C33.3305 17.1827 33.2755 17.2537 33.2339 17.3322C33.1952 17.41 33.1751 17.4954 33.1753 17.5819C33.1753 17.7245 33.2302 17.855 33.3085 17.9731C33.4311 18.1435 33.6111 18.2963 33.8358 18.4491C34.0675 18.5994 34.3441 18.7478 34.6628 18.894C35.3693 19.2182 36.2751 19.3877 36.9634 19.3989H36.9654C38.0358 19.3989 38.9597 19.159 39.7384 18.6018V18.6004H39.7397C40.5011 18.0431 40.9748 17.2148 40.9748 16.2798C40.9748 15.7657 40.8509 15.33 40.6344 14.9733C40.3075 14.4326 39.7765 14.0761 39.1743 13.7948ZM99.5288 14.056C99.5288 12.96 99.1033 11.9779 98.4232 11.2691C97.7441 10.5623 96.8119 10.1334 95.7923 10.1309C94.7807 10.1309 93.8521 10.5623 93.1661 11.2691C92.485 11.9779 92.0539 12.96 92.0539 14.056C92.0539 15.1506 92.485 16.1263 93.1661 16.8293C93.8484 17.5327 94.7807 17.9563 95.7923 17.9563C96.8141 17.9563 97.7463 17.5327 98.4254 16.8317C99.1033 16.1261 99.5288 15.1515 99.5288 14.056ZM100.804 8.89912C100.875 8.967 100.932 9.04824 100.97 9.138C101.009 9.22776 101.029 9.32423 101.029 9.42167V18.6889C101.027 18.8812 100.948 19.0652 100.809 19.2005C100.667 19.3366 100.478 19.4137 100.28 19.4156C100.074 19.4156 99.8843 19.3295 99.7513 19.2005C99.6813 19.134 99.6257 19.0545 99.5874 18.9667C99.5492 18.8788 99.5293 18.7844 99.5288 18.6889V17.7847C98.5847 18.7757 97.2593 19.4156 95.7923 19.4156C94.3325 19.4156 93.0183 18.8058 92.0766 17.8293C91.132 16.8574 90.5538 15.5184 90.5538 14.056C90.5538 12.5936 91.132 11.2534 92.0766 10.2805C93.0183 9.30479 94.3325 8.69616 95.7923 8.69616C97.2583 8.69616 98.5847 9.3174 99.5288 10.3036V9.42167C99.5288 9.21798 99.6148 9.02957 99.7535 8.89912C99.8962 8.76807 100.085 8.69546 100.28 8.69616C100.478 8.69616 100.667 8.77084 100.804 8.89912ZM111.393 9.83874C111.542 9.69495 111.623 9.50411 111.623 9.31498C111.623 9.21926 111.602 9.12472 111.562 9.03736C111.522 8.94999 111.464 8.87171 111.392 8.80746H111.393C111.392 8.80309 111.388 8.80309 111.388 8.80309C111.387 8.7997 111.385 8.79849 111.385 8.79849H111.382C111.244 8.66288 111.057 8.58608 110.861 8.58462C110.667 8.58462 110.478 8.66294 110.333 8.80309L104.469 14.3581V5.02182C104.469 4.6193 104.123 4.29267 103.697 4.29267C103.492 4.29267 103.304 4.37633 103.17 4.50775C103.037 4.63845 102.948 4.82225 102.948 5.02182V18.6886C102.948 18.888 103.037 19.0708 103.17 19.2003C103.311 19.3365 103.5 19.4137 103.697 19.4154C104.123 19.4154 104.469 19.0897 104.469 18.6886V16.4335L106.379 14.5795L110.271 19.1445C110.345 19.2493 110.444 19.3215 110.543 19.3596C110.655 19.4008 110.765 19.4154 110.862 19.4154C110.996 19.4154 111.185 19.3875 111.352 19.2602L111.361 19.2548L111.371 19.2446C111.527 19.0953 111.615 18.8969 111.615 18.6942C111.615 18.5235 111.55 18.3496 111.43 18.2105V18.208L107.467 13.5259L111.389 9.8385L111.393 9.83874ZM85.1248 4.32541H84.9575C84.9352 4.32541 84.914 4.32759 84.8907 4.32832C84.8702 4.32759 84.8482 4.32541 84.8267 4.32541C84.3943 4.32541 83.9745 4.37318 83.5822 4.5C83.1955 4.62512 82.8393 4.83147 82.5629 5.14451L82.5617 5.1433L82.5607 5.14451V5.14573C82.2751 5.45441 82.0868 5.82347 81.9723 6.24272C81.8576 6.66415 81.8104 7.13894 81.8059 7.67822V8.72332H80.6212C80.2096 8.72526 79.8828 9.04509 79.8828 9.43209C79.8805 9.63243 79.9584 9.82567 80.0996 9.97041C80.2402 10.1114 80.4294 10.1957 80.6301 10.2068H81.8059V18.7066L81.8047 18.7265C81.8047 18.926 81.8907 19.1098 82.0297 19.2417C82.1669 19.371 82.3599 19.4478 82.5698 19.4478C82.7638 19.4466 82.9493 19.3699 83.0858 19.2347C83.2223 19.0995 83.2985 18.9167 83.2979 18.7265V10.2068H84.5718C84.7715 10.1974 84.9605 10.1154 85.1021 9.97695C85.2405 9.84238 85.3256 9.653 85.3256 9.44761V9.41997C85.3209 9.03733 84.9918 8.72307 84.58 8.72307H83.2979V7.68282C83.306 7.22259 83.3552 6.87802 83.4264 6.6273C83.4952 6.37511 83.5894 6.21702 83.6739 6.11905C83.7567 6.032 83.8643 5.9595 84.0398 5.9013C84.2166 5.84577 84.4608 5.81013 84.7913 5.81013H84.8301C84.8494 5.81013 84.8702 5.80673 84.8885 5.80673C84.9115 5.80673 84.933 5.81013 84.9575 5.81013H85.1248C85.5476 5.81013 85.8887 5.47793 85.8887 5.06765C85.8887 4.65737 85.5476 4.32541 85.1248 4.32541ZM126.576 8.70586C126.576 9.66391 125.916 10.4639 124.814 10.4639C123.719 10.4639 123.067 9.65639 123.067 8.70586C123.067 7.74757 123.719 6.94786 124.814 6.94786C125.916 6.94786 126.576 7.74757 126.576 8.70586ZM126.227 8.70586C126.227 7.89112 125.668 7.27206 124.814 7.27206C123.975 7.27206 123.417 7.86056 123.417 8.70586C123.417 9.51284 123.975 10.1389 124.814 10.1389C125.668 10.1389 126.227 9.5206 126.227 8.70586ZM124.123 7.91342H124.876C125.287 7.91342 125.559 8.13214 125.559 8.47162C125.559 8.68307 125.45 8.84141 125.287 8.93961L125.582 9.35426V9.43743H125.155L124.868 9.03733H124.534V9.43743H124.123V7.91342ZM124.868 8.28321H124.534V8.68306H124.868C125.023 8.68306 125.124 8.61517 125.124 8.4869C125.124 8.35111 125.031 8.28321 124.868 8.28321ZM11.2435 17.7388C12.1501 17.8019 12.8702 18.5245 12.9009 19.4149L12.9018 19.4743V26.3079C12.9018 27.2711 12.0979 28.0514 11.1107 28.0514C10.1389 28.0514 9.34981 27.3026 9.31817 26.3666L9.31718 26.3079V22.4854L5.90556 24.3984C5.04993 24.8821 3.95574 24.5958 3.45908 23.764C2.97503 22.9478 3.24499 21.9066 4.05982 21.411L4.11396 21.3795L10.2035 17.9663C10.5184 17.788 10.8812 17.7086 11.2435 17.7388ZM18.4477 17.9284L18.5182 17.9663L24.6064 21.3797C24.8098 21.4934 24.9882 21.6455 25.1313 21.8271C25.2745 22.0087 25.3796 22.2164 25.4406 22.438C25.5015 22.6597 25.5172 22.891 25.4866 23.1186C25.456 23.3463 25.3798 23.5657 25.2623 23.7643C24.7785 24.5783 23.7189 24.87 22.8712 24.4284L22.8161 24.3986L19.4067 22.4854V26.3082C19.4067 27.2713 18.6052 28.0516 17.6131 28.0516C16.6415 28.0516 15.8544 27.3028 15.8227 26.3668L15.8217 26.3082V19.4743C15.8217 18.557 16.551 17.8036 17.4798 17.7388C17.8142 17.7108 18.15 17.7766 18.4477 17.9284ZM2.63436 9.06886L2.68949 9.09844L8.77453 12.5138C9.18277 12.7403 9.48268 13.1164 9.6084 13.5596C9.64845 13.6969 9.66674 13.8336 9.67367 13.9709C9.67898 14.1632 9.6514 14.355 9.59208 14.5383C9.46674 14.9346 9.20048 15.2735 8.84177 15.4934L8.77453 15.533L2.68949 18.9505C1.8304 19.4311 0.735472 19.1467 0.242271 18.3152C0.00912039 17.9242 -0.0585602 17.4591 0.0537373 17.0197C0.166035 16.5803 0.449372 16.2015 0.843012 15.9646L0.897401 15.9331L4.29765 14.0267L0.897153 12.1152C0.0383154 11.6334 -0.255381 10.5698 0.242271 9.73738C0.724842 8.92143 1.78417 8.6302 2.63436 9.06886ZM28.4813 9.73738C28.978 10.5701 28.6843 11.6334 27.8255 12.1152L24.4252 14.0267L27.8257 15.9331C28.6845 16.4156 28.9782 17.4791 28.4816 18.3152C27.9861 19.1467 26.89 19.4311 26.0341 18.9505L19.9446 15.533C19.5387 15.3031 19.2566 14.943 19.1315 14.5383C19.0722 14.355 19.045 14.1631 19.0512 13.9709C19.0545 13.834 19.0756 13.6969 19.1145 13.5596C19.2407 13.1178 19.5389 12.7422 19.9446 12.5138L26.0344 9.09844C26.89 8.61784 27.9861 8.90373 28.4818 9.73738M14.7328 10.7672C14.8361 10.7672 14.978 10.8242 15.0504 10.8964L17.581 13.3535C17.6531 13.4236 17.7117 13.563 17.7117 13.6634V14.388C17.7117 14.4862 17.6531 14.6253 17.581 14.6945L15.0499 17.1515C14.9775 17.2238 14.8378 17.283 14.7323 17.283H13.9881C13.8858 17.283 13.7436 17.2238 13.6702 17.1515L11.1404 14.6945C11.0682 14.6253 11.0094 14.4859 11.0094 14.388V13.6634C11.0094 13.563 11.0682 13.4236 11.1404 13.3535L13.6702 10.8964C13.7436 10.8242 13.8858 10.7672 13.9881 10.7672H14.7328ZM14.3748 12.8642H14.3463C14.2442 12.8642 14.1021 12.9224 14.0309 12.9922L13.2981 13.7012C13.2247 13.7747 13.1683 13.9132 13.1683 14.0124V14.0402C13.1683 14.1382 13.2247 14.2754 13.2981 14.3467L14.0309 15.0579C14.1031 15.1283 14.2442 15.186 14.3463 15.186H14.3748C14.4771 15.186 14.6195 15.128 14.6915 15.0579L15.4245 14.3467C15.4967 14.2754 15.5585 14.1382 15.5585 14.0402V14.0124C15.5585 13.9129 15.4967 13.7747 15.4245 13.7012L14.6915 12.9922C14.6193 12.9221 14.4771 12.8642 14.3748 12.8642ZM17.6131 0C18.5847 0 19.3738 0.749029 19.4057 1.68235L19.4067 1.74103V5.56474L22.8161 3.64961C23.6729 3.16804 24.7681 3.45368 25.2623 4.28613C25.4943 4.67759 25.5612 5.14248 25.4488 5.58165C25.3363 6.02082 25.0534 6.39953 24.6603 6.637L24.6064 6.66852L18.5179 10.0851C18.2032 10.2618 17.8413 10.341 17.4798 10.3123C16.5713 10.2471 15.8534 9.52351 15.8227 8.63408L15.8217 8.57443V1.74103C15.8217 0.780552 16.6213 0 17.6131 0ZM11.1107 0C12.0776 0 12.869 0.749029 12.9009 1.68235L12.9018 1.74103V8.57419C12.9018 9.49078 12.1701 10.2454 11.2438 10.3121C10.9088 10.3385 10.573 10.2728 10.2742 10.1222L10.2035 10.0846L4.11396 6.66828C3.91062 6.55485 3.73221 6.40301 3.58906 6.22155C3.4459 6.04008 3.34084 5.83258 3.27994 5.61105C3.21905 5.38951 3.20353 5.15833 3.23427 4.93088C3.26502 4.70342 3.34143 4.4842 3.45908 4.28588C3.94511 3.47114 5.0037 3.18016 5.85043 3.61954L5.90531 3.64937L9.31693 5.56449V1.74078C9.31718 0.780794 10.1184 0 11.1107 0Z" fill="var(--fill-0, white)"/>
</g>
<defs>
<clipPath id="clip0_2_924">
<rect width="125.364" height="28.4027" fill="white"/>
</clipPath>
</defs>
</svg>
