<svg preserveAspectRatio="none" width="100%" height="100%" overflow="visible" style="display: block;" viewBox="0 0 104.432 182.034" fill="none" xmlns="http://www.w3.org/2000/svg">
<path id="Vector" d="M96.4672 8.33247C41.8454 5.26212 56.3144 98.9146 77.4078 93.921C98.5012 88.9284 46.6374 20.7486 16.9295 37.3791C-12.7784 54.0075 7.39981 95.8579 12.1647 104.378C16.9305 112.898 45.1529 153.563 92.4357 174.089M92.7846 166.875C96.6887 166.875 99.853 170.034 99.853 173.932C99.853 177.829 96.6887 180.989 92.7846 180.989C88.8806 180.989 85.7163 177.829 85.7163 173.932C85.7163 170.034 88.8806 166.875 92.7846 166.875ZM96.3188 1.04469C100.223 1.04469 103.387 4.20384 103.387 8.10159C103.387 11.9993 100.223 15.1585 96.3188 15.1585C92.4148 15.1585 89.2504 11.9993 89.2504 8.10159C89.2504 4.20384 92.4148 1.04469 96.3188 1.04469Z" stroke="var(--stroke-0, #F4813A)" stroke-width="2.08939" stroke-linecap="round" stroke-linejoin="round" stroke-dasharray="1.04 1.04"/>
</svg>
