<svg preserveAspectRatio="none" width="100%" height="100%" overflow="visible" style="display: block;" viewBox="0 0 56 56" fill="none" xmlns="http://www.w3.org/2000/svg">
<g id="6904ca7a4abbe56dfff89559_service-icon-01.svg" clip-path="url(#clip0_2_955)">
<path id="Vector" d="M9.33333 27.9991H0V37.3325H9.33333V27.9991ZM18.6667 18.6658H9.33333V27.9991H18.6667V18.6658ZM18.6667 37.3325H9.33333V46.6658H18.6667V37.3325ZM9.33333 46.6658H0V55.9991H9.33333V46.6658ZM37.3333 37.3325H28V46.6658H37.3333V37.3325ZM28 46.6658H18.6667V55.9991H28V46.6658ZM46.6667 28.0156H56V18.6823H46.6667V28.0156ZM37.3333 37.349H46.6667V28.0156H37.3333V37.349ZM37.3333 18.6823H46.6667V9.34896H37.3333V18.6823ZM46.6667 9.34896H56V0.015625H46.6667V9.34896ZM18.6667 18.6823H28V9.34896H18.6667V18.6823ZM28 9.34896H37.3333V0.015625H28V9.34896Z" fill="var(--fill-0, black)"/>
</g>
<defs>
<clipPath id="clip0_2_955">
<rect width="56" height="56" fill="white"/>
</clipPath>
</defs>
</svg>
