<svg preserveAspectRatio="none" width="100%" height="100%" overflow="visible" style="display: block;" viewBox="0 0 121 215.419" fill="none" xmlns="http://www.w3.org/2000/svg">
<g id="Variant 2 &#226;&#134;&#146; SVG">
<path id="Vector" d="M97.0891 8.33247C42.4674 5.26212 56.9364 98.9146 78.0297 93.921C99.1231 88.9284 47.2594 20.7486 17.5514 37.3791C-12.1565 54.0075 8.02175 95.8579 12.7866 104.378C17.5525 112.898 45.7749 153.563 93.0577 174.089M93.4066 166.875C97.3106 166.875 100.475 170.034 100.475 173.932C100.475 177.829 97.3106 180.989 93.4066 180.989C89.5026 180.989 86.3382 177.829 86.3382 173.932C86.3382 170.034 89.5026 166.875 93.4066 166.875ZM96.9408 1.04469C100.845 1.04469 104.009 4.20384 104.009 8.10159C104.009 11.9993 100.845 15.1585 96.9408 15.1585C93.0368 15.1585 89.8724 11.9993 89.8724 8.10159C89.8724 4.20384 93.0368 1.04469 96.9408 1.04469Z" stroke="var(--stroke-0, #F4813A)" stroke-width="2.08939" stroke-linecap="round" stroke-linejoin="round" stroke-dasharray="1.04 1.04"/>
</g>
</svg>
