<svg preserveAspectRatio="none" width="100%" height="100%" overflow="visible" style="display: block;" viewBox="0 0 96.2714 31.5891" fill="none" xmlns="http://www.w3.org/2000/svg">
<g id="logos:google" clip-path="url(#clip0_2_933)">
<path id="Vector" d="M93.1105 19.339L95.7767 21.1225C94.9114 22.4015 92.8417 24.5959 89.2636 24.5959C84.8203 24.5959 81.5112 21.1461 81.5112 16.7576C81.5112 12.0876 84.8554 8.91945 88.8895 8.91945C92.9469 8.91945 94.9346 12.1579 95.5779 13.9062L95.9287 14.7981L85.4751 19.1395C86.2703 20.7119 87.5099 21.5098 89.2636 21.5098C91.0177 21.5098 92.2336 20.6415 93.1105 19.339ZM84.9139 16.5114L91.8946 13.6013C91.5087 12.6275 90.3629 11.9352 88.9946 11.9352C87.2525 11.9352 84.8321 13.4841 84.9139 16.5114Z" fill="var(--fill-0, white)"/>
<path id="Vector_2" d="M76.4716 0.928784H79.839V23.8801H76.4716V0.928784Z" fill="var(--fill-0, white)"/>
<path id="Vector_3" d="M71.1629 9.52954H74.4136V23.4693C74.4136 29.2539 71.0109 31.6359 66.9884 31.6359C63.2 31.6359 60.92 29.078 60.0663 27.0012L63.048 25.7573C63.5857 27.0362 64.8837 28.55 66.9884 28.55C69.5725 28.55 71.1629 26.9424 71.1629 23.9387V22.8123H71.046C70.2742 23.7509 68.8009 24.5957 66.93 24.5957C63.0245 24.5957 59.4463 21.1811 59.4463 16.7811C59.4463 12.3574 63.0245 8.90778 66.93 8.90778C68.7892 8.90778 70.2742 9.74088 71.046 10.6561H71.1629V9.52954ZM71.3966 16.7811C71.3966 14.0119 69.5609 11.9936 67.2223 11.9936C64.8602 11.9936 62.8725 14.0119 62.8725 16.7811C62.8725 19.5149 64.8602 21.4979 67.2223 21.4979C69.5611 21.5098 71.3968 19.5149 71.3968 16.7811" fill="var(--fill-0, white)"/>
<path id="Vector_4" d="M40.9599 16.7223C40.9599 21.2399 37.4521 24.5605 33.149 24.5605C28.8461 24.5605 25.3381 21.2282 25.3381 16.7223C25.3381 12.1814 28.8461 8.87256 33.149 8.87256C37.4521 8.87256 40.9599 12.1814 40.9599 16.7223ZM37.5455 16.7223C37.5455 13.9064 35.5108 11.9701 33.149 11.9701C30.7871 11.9701 28.7524 13.9064 28.7524 16.7223C28.7524 19.5149 30.7871 21.4746 33.149 21.4746C35.511 21.4746 37.5455 19.5149 37.5455 16.7223Z" fill="var(--fill-0, white)"/>
<path id="Vector_5" d="M58.02 16.7576C58.02 21.2751 54.512 24.5957 50.2091 24.5957C45.906 24.5957 42.3982 21.2749 42.3982 16.7576C42.3982 12.2166 45.906 8.91945 50.2091 8.91945C54.512 8.91945 58.02 12.205 58.02 16.7576ZM54.5938 16.7576C54.5938 13.9416 52.5593 12.0053 50.1972 12.0053C47.8352 12.0053 45.8007 13.9416 45.8007 16.7576C45.8007 19.5501 47.8354 21.5098 50.1972 21.5098C52.5709 21.5098 54.5938 19.5385 54.5938 16.7576Z" fill="var(--fill-0, white)"/>
<path id="Vector_6" d="M12.4991 21.1578C7.59971 21.1578 3.76457 17.1917 3.76457 12.2752C3.76457 7.35891 7.59971 3.39287 12.4991 3.39287C15.1418 3.39287 17.071 4.43712 18.4976 5.77483L20.848 3.41641C18.8602 1.50383 16.2059 0.0485861 12.4991 0.0485861C5.78744 0.0487744 0.139642 5.54033 0.139642 12.2752C0.139642 19.0101 5.78744 24.5019 12.4991 24.5019C16.1241 24.5019 18.8602 23.305 21 21.0756C23.1982 18.8696 23.8764 15.7719 23.8764 13.2609C23.8764 12.4747 23.7829 11.6651 23.6776 11.0667H12.4991V14.3287H20.4621C20.2282 16.3705 19.5851 17.7668 18.638 18.717C17.492 19.8788 15.6798 21.1578 12.4991 21.1578Z" fill="var(--fill-0, white)"/>
</g>
<defs>
<clipPath id="clip0_2_933">
<rect width="96.2714" height="31.5891" fill="white"/>
</clipPath>
</defs>
</svg>
