<svg preserveAspectRatio="none" width="100%" height="100%" overflow="visible" style="display: block;" viewBox="0 0 90.9509 22.3825" fill="none" xmlns="http://www.w3.org/2000/svg">
<g id="logos:openai" clip-path="url(#clip0_2_921)">
<path id="Vector" d="M65.1931 8.67325C63.8474 8.67325 62.8868 9.12833 62.4154 9.98989L62.1619 10.4565V8.89788H59.9722V18.3724H62.2756V12.7356C62.2756 11.3889 63.0151 10.6164 64.3032 10.6164C65.5316 10.6164 66.236 11.3686 66.236 12.6795V18.3722H68.5405V12.2729C68.5405 10.0171 67.2892 8.67325 65.1931 8.67325ZM54.0225 8.67325C51.3043 8.67325 49.6209 10.3522 49.6209 13.0542V14.3845C49.6209 16.9829 51.3239 18.5968 54.0655 18.5968C55.8993 18.5968 57.1847 17.9318 57.9935 16.5637L56.5655 15.7504C55.9679 16.5395 55.0132 17.0283 54.0664 17.0283C52.6785 17.0283 51.8501 16.1804 51.8501 14.7591V14.3825H58.2792V12.8112C58.2792 10.294 56.6094 8.67325 54.0244 8.67325H54.0225ZM56.1829 12.8508H51.8422V12.6233C51.8422 11.0637 52.6159 10.203 54.0205 10.203C55.3732 10.203 56.1811 11.051 56.1811 12.4722L56.1829 12.8508ZM91.4161 7.33823V5.52586H83.4484V7.33823H86.242V16.5559H83.4484V18.3683H91.4161V16.5559H88.6216V7.33823H91.4161ZM31.0026 5.26448C27.4441 5.26448 25.232 7.45929 25.232 10.9941V12.9051C25.232 16.4388 27.4433 18.6346 31.0026 18.6346C34.5619 18.6346 36.7734 16.4388 36.7734 12.9051V10.9939C36.7725 7.45541 34.558 5.26448 31.0026 5.26448ZM34.3927 13.0357C34.3927 15.3825 33.1573 16.7281 31.0026 16.7281C28.8479 16.7281 27.6134 15.3825 27.6134 13.0357V10.8622C27.6134 8.51543 28.8498 7.16981 31.0037 7.16981C33.1575 7.16981 34.3936 8.51526 34.3936 10.8622L34.3927 13.0357ZM44.0085 8.67308C42.7995 8.67308 41.7529 9.1688 41.2071 9.99855L40.9596 10.376V8.8977H38.7688V21.6322H41.0732V17.0195L41.3196 17.3816C41.8381 18.1426 42.8504 18.5967 44.0281 18.5967C46.0145 18.5967 48.0186 17.3118 48.0186 14.4403V12.8294C48.0186 10.7604 46.7833 8.67308 44.0085 8.67308ZM45.7143 14.329C45.7143 15.8559 44.8144 16.8046 43.3668 16.8046C42.017 16.8046 41.0751 15.8017 41.0751 14.3668V12.9416C41.0751 11.4894 42.0248 10.4671 43.3864 10.4671C44.8232 10.4671 45.7161 11.4149 45.7161 12.9416L45.7143 14.329ZM74.9076 5.52675L70.2588 18.3722H72.5994L73.4894 15.6187H78.8337L78.8426 15.646L79.7229 18.3722H82.0625L77.4057 5.52569L74.9076 5.52675ZM74.0606 13.8074L76.1576 7.31296L78.2332 13.8074H74.0606ZM20.7267 9.11278C20.9789 8.36342 21.0665 7.56936 20.9835 6.78378C20.9005 5.9982 20.6489 5.23924 20.2455 4.55774C19.6468 3.52762 18.7332 2.71211 17.6364 2.22862C16.5396 1.74513 15.3161 1.61858 14.1421 1.8672C13.6124 1.27624 12.9614 0.804019 12.2326 0.482112C11.5038 0.160206 10.7139 -0.00396649 9.91584 0.000573116C8.715 -0.00214536 7.54431 0.372783 6.57268 1.07127C5.60104 1.76976 4.87868 2.7557 4.5098 3.88687C3.72807 4.04561 2.98958 4.36772 2.34371 4.83165C1.69784 5.29558 1.15948 5.89064 0.764603 6.57706C0.16258 7.60537 -0.0942562 8.79625 0.0310693 9.97825C0.156395 11.1603 0.657417 12.2724 1.46201 13.1546C1.2108 13.9034 1.12379 14.6965 1.20676 15.4812C1.28974 16.2659 1.5408 17.024 1.94319 17.705C2.54136 18.7371 3.45528 19.5543 4.5531 20.0389C5.65092 20.5235 6.87589 20.6504 8.05128 20.4012C8.58039 20.9916 9.23063 21.4635 9.9586 21.7854C10.6866 22.1073 11.4755 22.2718 12.2728 22.2679C13.4737 22.2706 14.6444 21.8957 15.616 21.1972C16.5876 20.4987 17.31 19.5127 17.6789 18.3816C18.4604 18.2227 19.1987 17.9005 19.8444 17.4365C20.4901 16.9726 21.0283 16.3775 21.423 15.6912C22.0265 14.6632 22.2843 13.4719 22.1591 12.2895C22.034 11.107 21.5323 9.99464 20.7267 9.11278ZM12.2728 20.8157C11.2867 20.8165 10.3318 20.4737 9.57536 19.8475C9.60857 19.8292 9.6732 19.7972 9.71034 19.773L14.1901 17.2132C14.3025 17.15 14.3958 17.0583 14.4605 16.9475C14.5252 16.8367 14.5588 16.7108 14.5579 16.5828V10.3308L16.4505 11.4122C16.4607 11.4171 16.4694 11.4244 16.476 11.4336C16.4825 11.4427 16.4865 11.4534 16.4876 11.4645V16.6392C16.4876 18.9439 14.6015 20.813 12.2728 20.8157ZM3.21659 16.9877C2.72288 16.1429 2.54468 15.1533 2.71309 14.1917C2.74612 14.212 2.80486 14.2468 2.84592 14.2699L7.32674 16.8308C7.43832 16.8954 7.56527 16.9294 7.69454 16.9294C7.82382 16.9294 7.95076 16.8954 8.06235 16.8308L13.5286 13.7019V15.8648C13.5295 15.8758 13.5276 15.887 13.523 15.8971C13.5183 15.9073 13.5112 15.9161 13.5021 15.9227L8.97383 18.5097C6.95768 19.6588 4.38232 18.9757 3.21659 16.9828V16.9877ZM2.043 7.30607C2.53434 6.45992 3.31104 5.81207 4.2368 5.4762V10.7468C4.2361 10.8748 4.2698 11.0006 4.33444 11.1113C4.39907 11.2221 4.49232 11.3139 4.60461 11.3772L10.0723 14.5023L8.17269 15.5876C8.16346 15.5939 8.15278 15.5976 8.14167 15.5987C8.13055 15.5997 8.11936 15.5979 8.10913 15.5935L3.58154 13.0058C1.56717 11.8523 0.876909 9.30206 2.03889 7.30624L2.043 7.30607ZM17.5948 10.8884L12.127 7.76309L14.0178 6.68062C14.0271 6.67459 14.0377 6.67091 14.0487 6.66989C14.0598 6.66887 14.0709 6.67055 14.0812 6.67479L18.6089 9.26265C19.3025 9.65923 19.8675 10.2432 20.2379 10.9461C20.6082 11.649 20.7686 12.4419 20.7003 13.2318C20.6319 14.0217 20.3376 14.7759 19.8519 15.4063C19.3661 16.0366 18.709 16.5169 17.9574 16.791V11.5216C17.9588 11.3934 17.9257 11.2671 17.8614 11.1558C17.7971 11.0445 17.7039 10.9522 17.5916 10.8884H17.5948ZM19.4795 8.08068C19.4356 8.05389 19.3912 8.02773 19.3465 8.00221L14.8659 5.44156C14.7543 5.37696 14.6273 5.34291 14.4981 5.34291C14.3688 5.34291 14.2419 5.37696 14.1303 5.44156L8.66262 8.5658V6.40386C8.66227 6.39274 8.66458 6.38169 8.66936 6.37162C8.67414 6.36154 8.68125 6.35273 8.69012 6.34589L13.2177 3.75892C13.9114 3.36303 14.7047 3.17092 15.5048 3.20506C16.3048 3.2392 17.0785 3.49819 17.7352 3.95171C18.3919 4.40522 18.9046 5.03451 19.2131 5.76592C19.5217 6.49733 19.6134 7.30061 19.4776 8.08174L19.4795 8.08068ZM7.6308 11.9378L5.73731 10.8564C5.72759 10.8511 5.71926 10.8436 5.71297 10.8346C5.70668 10.8255 5.7026 10.8151 5.70107 10.8043V5.62925C5.70042 4.83611 5.92822 4.05923 6.35774 3.38967C6.78727 2.72011 7.40073 2.18562 8.12622 1.84887C8.8517 1.51211 9.65913 1.38705 10.4539 1.48833C11.2486 1.58961 11.9977 1.91305 12.6133 2.42072C12.5801 2.43927 12.5205 2.47108 12.4784 2.4953L7.99861 5.05506C7.88632 5.11839 7.79307 5.21016 7.72843 5.32094C7.6638 5.43172 7.6301 5.55753 7.6308 5.68545V11.9378ZM8.65887 9.74318L11.0943 8.3509L13.5287 9.74318V12.5256L11.0934 13.9177L8.65798 12.5256L8.65887 9.74318Z" fill="var(--fill-0, white)"/>
</g>
<defs>
<clipPath id="clip0_2_921">
<rect width="90.9509" height="22.3825" fill="white"/>
</clipPath>
</defs>
</svg>
