<svg preserveAspectRatio="none" width="100%" height="100%" overflow="visible" style="display: block;" viewBox="0 0 245 75" fill="none" xmlns="http://www.w3.org/2000/svg">
<g id="1 - Animate &#226;&#134;&#146; SVG">
<path id="Vector" d="M10.6292 59.06C10.6292 59.06 38.5612 12.2928 87.8558 6.65777C137.151 1.02178 171.485 14.5712 231.129 60.4814M10.5003 52.9886C14.3657 52.9886 17.5001 56.1329 17.5001 60.0132C17.5001 63.8925 14.3657 67.0379 10.5003 67.0379C6.63385 67.0379 3.50043 63.8925 3.50043 60.0132C3.50043 56.1329 6.63385 52.9886 10.5003 52.9886ZM231 52.9886C234.866 52.9886 238 56.1329 238 60.0132C238 63.8925 234.866 67.0379 231 67.0379C227.134 67.0379 224 63.8925 224 60.0132C224 56.1329 227.134 52.9886 231 52.9886Z" stroke="var(--stroke-0, #F4813A)" stroke-width="1.98381" stroke-linecap="round" stroke-linejoin="round" stroke-dasharray="0.99 0.99"/>
</g>
</svg>
