<svg preserveAspectRatio="none" width="100%" height="100%" overflow="visible" style="display: block;" viewBox="0 0 76.0214 76.0214" fill="none" xmlns="http://www.w3.org/2000/svg">
<g id="Group">
<path id="Vector" d="M57.0161 57.0161C67.5124 46.5197 67.5124 29.5017 57.0161 19.0054C46.5197 8.50899 29.5017 8.50899 19.0054 19.0054C8.50899 29.5017 8.50899 46.5197 19.0054 57.0161C29.5017 67.5124 46.5197 67.5124 57.0161 57.0161Z" fill="var(--fill-0, #19CFBA)"/>
<path id="Vector_2" fill-rule="evenodd" clip-rule="evenodd" d="M57.1039 62.0177C57.1857 61.7358 57.3748 61.4971 57.6304 61.3529C57.8861 61.2087 58.1881 61.1704 58.4717 61.2461C58.7553 61.3219 58.998 61.5058 59.1477 61.7583C59.2973 62.0108 59.3421 62.3119 59.2725 62.5971L58.2509 66.3748C67.3405 59.8796 72.8553 49.4197 72.8553 38.0117C72.855 18.7722 57.259 3.17614 38.0195 3.17614C18.7802 3.17614 3.18414 18.7722 3.18414 38.0115C3.18414 50.4414 9.72692 61.6994 20.2151 67.9611C20.47 68.1136 20.6539 68.3611 20.7264 68.6492C20.7988 68.9374 20.7538 69.2425 20.6013 69.4974C20.4488 69.7524 20.2012 69.9363 19.9131 70.0087C19.625 70.0811 19.3199 70.0361 19.0649 69.8836C7.908 63.2229 0.936523 51.2252 0.936523 38.0117C0.936523 17.5316 17.5394 0.928683 38.0195 0.928683C58.4997 0.928683 75.1026 17.5316 75.1026 38.0117C75.1026 49.8602 69.4938 60.7797 60.1964 67.728L63.2286 67.6683C63.5228 67.6667 63.8058 67.781 64.0165 67.9864C64.2271 68.1918 64.3484 68.4718 64.3542 68.7659C64.36 69.0601 64.2497 69.3447 64.0473 69.5582C63.8449 69.7717 63.5666 69.897 63.2726 69.9069L56.5028 70.0402C55.6482 70.0883 55.1256 69.3382 55.3152 68.6328L57.1039 62.0177Z" fill="var(--fill-0, #19CFBA)"/>
<path id="Vector_3" d="M54.3359 54.3362C63.3522 45.3199 63.3522 30.7015 54.3359 21.6852C45.3196 12.6689 30.7012 12.6689 21.6849 21.6852C12.6686 30.7015 12.6686 45.3199 21.6849 54.3362C30.7012 63.3526 45.3196 63.3526 54.3359 54.3362Z" fill="var(--fill-0, #FFBF31)"/>
<path id="Vector_4" fill-rule="evenodd" clip-rule="evenodd" d="M38.0192 14.9248C38.3697 14.9248 38.7178 14.934 39.0645 14.9494V18.2696C39.0645 18.5468 38.9544 18.8127 38.7584 19.0087C38.5623 19.2048 38.2965 19.3149 38.0192 19.3149C37.742 19.3149 37.4761 19.2048 37.28 19.0087C37.084 18.8127 36.9739 18.5468 36.9739 18.2696V14.9494C37.3206 14.934 37.6687 14.9248 38.0192 14.9248ZM61.0822 36.9672V39.0579H57.762C57.4848 39.0579 57.2189 38.9477 57.0229 38.7517C56.8268 38.5557 56.7167 38.2898 56.7167 38.0125C56.7167 37.7353 56.8268 37.4694 57.0229 37.2734C57.2189 37.0773 57.4848 36.9672 57.762 36.9672H61.0822ZM39.0645 61.0755C38.3449 61.1077 37.6937 61.1077 36.9739 61.0755V57.7553C36.9739 57.4781 37.084 57.2122 37.28 57.0162C37.4761 56.8201 37.742 56.71 38.0192 56.71C38.2965 56.71 38.5623 56.8201 38.7584 57.0162C38.9544 57.2122 39.0645 57.4781 39.0645 57.7553V61.0755ZM14.9561 39.0579V36.9672H18.2762C18.5535 36.9672 18.8194 37.0773 19.0154 37.2734C19.2114 37.4694 19.3216 37.7353 19.3216 38.0125C19.3216 38.2898 19.2114 38.5557 19.0154 38.7517C18.8194 38.9477 18.5535 39.0579 18.2762 39.0579H14.9561ZM36.9739 23.5021C36.9739 23.2249 37.084 22.959 37.28 22.763C37.4761 22.5669 37.742 22.4568 38.0192 22.4568C38.2965 22.4568 38.5623 22.5669 38.7584 22.763C38.9544 22.959 39.0645 23.2249 39.0645 23.5021V37.6158L47.3805 46.9358C47.5595 47.1434 47.6497 47.413 47.6317 47.6865C47.6136 47.96 47.4887 48.2155 47.284 48.3977C47.0792 48.58 46.811 48.6744 46.5372 48.6606C46.2635 48.6468 46.0061 48.5259 45.8207 48.324L37.273 38.7441C37.0811 38.549 36.9736 38.2861 36.974 38.0124L36.9739 23.5021Z" fill="var(--fill-0, #4187B5)"/>
<path id="Vector_5" d="M40.4154 40.4151C41.7434 39.0872 41.7434 36.9342 40.4154 35.6063C39.0875 34.2784 36.9345 34.2784 35.6066 35.6063C34.2786 36.9342 34.2786 39.0872 35.6066 40.4151C36.9345 41.7431 39.0875 41.7431 40.4154 40.4151Z" fill="var(--fill-0, #FA6E85)"/>
</g>
</svg>
