<svg preserveAspectRatio="none" width="100%" height="100%" overflow="visible" style="display: block;" viewBox="0 0 69 69.002" fill="none" xmlns="http://www.w3.org/2000/svg">
<g id="Group">
<path id="Vector" d="M61.4531 22.5078C60.3367 22.5078 59.4316 21.6027 59.4316 20.4863V16.1738C59.4316 15.0574 60.3367 14.1523 61.4531 14.1523C62.5695 14.1523 63.4746 15.0574 63.4746 16.1738V20.4863C63.4746 21.6027 62.5695 22.5078 61.4531 22.5078Z" fill="var(--fill-0, #455B64)"/>
<path id="Vector_2" d="M69 20.4863V66.9805C69 68.0963 68.0944 69.002 66.9785 69.002H51.6152C51.6152 69.002 50.1207 68.4238 47.7272 67.7581C47.6275 67.5182 47.5723 67.2554 47.5723 66.9805V20.4863C47.5723 19.3705 48.4779 18.4648 49.5938 18.4648H66.9785C68.0944 18.4648 69 19.3705 69 20.4863Z" fill="var(--fill-0, #FBBD00)"/>
<g id="Group_2">
<path id="Vector_3" d="M61.4531 52.6953H59.2969C58.1805 52.6953 57.2754 51.7902 57.2754 50.6738C57.2754 49.5574 58.1805 48.6523 59.2969 48.6523H61.4531C62.5695 48.6523 63.4746 49.5574 63.4746 50.6738C63.4746 51.7902 62.5695 52.6953 61.4531 52.6953ZM61.4531 45.1484H59.2969C58.1805 45.1484 57.2754 44.2434 57.2754 43.127C57.2754 42.0106 58.1805 41.1055 59.2969 41.1055H61.4531C62.5695 41.1055 63.4746 42.0106 63.4746 43.127C63.4746 44.2434 62.5695 45.1484 61.4531 45.1484ZM61.4531 37.6016H59.2969C58.1805 37.6016 57.2754 36.6965 57.2754 35.5801C57.2754 34.4637 58.1805 33.5586 59.2969 33.5586H61.4531C62.5695 33.5586 63.4746 34.4637 63.4746 35.5801C63.4746 36.6965 62.5695 37.6016 61.4531 37.6016ZM61.4531 30.0547H59.2969C58.1805 30.0547 57.2754 29.1496 57.2754 28.0332C57.2754 26.9168 58.1805 26.0117 59.2969 26.0117H61.4531C62.5695 26.0117 63.4746 26.9168 63.4746 28.0332C63.4746 29.1496 62.5695 30.0547 61.4531 30.0547Z" fill="var(--fill-0, #EDE0DB)"/>
</g>
<path id="Vector_4" d="M6.46875 36.5234C5.35235 36.5234 4.44727 35.6184 4.44727 34.502V30.1895C4.44727 29.0731 5.35235 28.168 6.46875 28.168C7.58515 28.168 8.49023 29.0731 8.49023 30.1895V34.502C8.49023 35.6184 7.58515 36.5234 6.46875 36.5234Z" fill="var(--fill-0, #54707A)"/>
<path id="Vector_5" d="M21.4277 34.502V66.9805C21.4277 67.2554 21.3725 67.5182 21.2728 67.7581C18.8793 68.4238 17.3848 69.002 17.3848 69.002H2.02148C0.905625 69.002 0 68.0963 0 66.9805V34.502C0 33.3861 0.905625 32.4805 2.02148 32.4805H19.4062C20.5221 32.4805 21.4277 33.3861 21.4277 34.502Z" fill="var(--fill-0, #73CC70)"/>
<path id="Vector_6" d="M9.70312 44.0703H7.54688C6.43048 44.0703 5.52539 43.1652 5.52539 42.0488C5.52539 40.9324 6.43048 40.0273 7.54688 40.0273H9.70312C10.8195 40.0273 11.7246 40.9324 11.7246 42.0488C11.7246 43.1652 10.8195 44.0703 9.70312 44.0703ZM9.70312 51.6172H7.54688C6.43048 51.6172 5.52539 50.7121 5.52539 49.5957C5.52539 48.4793 6.43048 47.5742 7.54688 47.5742H9.70312C10.8195 47.5742 11.7246 48.4793 11.7246 49.5957C11.7246 50.7121 10.8195 51.6172 9.70312 51.6172ZM9.70312 59.1641H7.54688C6.43048 59.1641 5.52539 58.259 5.52539 57.1426C5.52539 56.0262 6.43048 55.1211 7.54688 55.1211H9.70312C10.8195 55.1211 11.7246 56.0262 11.7246 57.1426C11.7246 58.259 10.8195 59.1641 9.70312 59.1641Z" fill="var(--fill-0, #FDF3F3)"/>
<path id="Vector_7" d="M38.6265 6.14531L34.5 12.8027H25.875C24.7591 12.8027 23.8535 11.8971 23.8535 10.7812V2.02148C23.8535 0.905625 24.7591 0 25.875 0H34.5L38.6265 6.14531Z" fill="var(--fill-0, #1799D9)"/>
<path id="Vector_8" d="M45.1465 2.02148V10.7812C45.1465 11.8971 44.2409 12.8027 43.125 12.8027H34.5V0H43.125C44.2409 0 45.1465 0.905625 45.1465 2.02148Z" fill="var(--fill-0, #0181B7)"/>
<path id="Vector_9" d="M49.362 36.6582L34.5 66.7743C29.8924 66.7743 27.0879 69.002 27.0879 69.002H17.3848V10.7832C17.3848 9.66734 18.2904 8.76172 19.4062 8.76172H34.5L49.362 36.6582Z" fill="var(--fill-0, #5DB9E3)"/>
<path id="Vector_10" d="M51.6152 10.7832V69.002H41.9121C41.9121 69.002 39.1076 66.7743 34.5 66.7743V8.76172H49.5938C50.7096 8.76172 51.6152 9.66734 51.6152 10.7832Z" fill="var(--fill-0, #1799D9)"/>
<path id="Vector_11" d="M37.1953 63.1242L34.5 69H31.1309C30.294 67.8734 29.1094 69 29.1094 69V56.0625H34.5L37.1953 63.1242Z" fill="var(--fill-0, #FDF3F3)"/>
<path id="Vector_12" d="M39.8906 56.0625V69C38.9756 67.6726 37.8691 69 37.8691 69H34.5V56.0625H39.8906Z" fill="var(--fill-0, #EDE0DB)"/>
<path id="Vector_13" d="M36.5619 56.3138L34.5 58.0859H31.1309V69.002H27.0879V58.0859H26.9531C25.8373 58.0859 24.9316 57.1803 24.9316 56.0645C24.9316 54.9486 25.8373 54.043 26.9531 54.043H34.5L36.5619 56.3138Z" fill="var(--fill-0, #1799D9)"/>
<path id="Vector_14" d="M44.0684 56.0645C44.0684 57.1803 43.1627 58.0859 42.0469 58.0859H41.9121V69.002H37.8691V58.0859H34.5V54.043H42.0469C43.1627 54.043 44.0684 54.9486 44.0684 56.0645Z" fill="var(--fill-0, #0181B7)"/>
<path id="Vector_15" d="M30.1875 47.3047H28.0312C26.9149 47.3047 26.0098 46.3996 26.0098 45.2832C26.0098 44.1668 26.9149 43.2617 28.0312 43.2617H30.1875C31.3039 43.2617 32.209 44.1668 32.209 45.2832C32.209 46.3996 31.3039 47.3047 30.1875 47.3047Z" fill="var(--fill-0, #FDF3F3)"/>
<path id="Vector_16" d="M40.9688 47.3047H38.8125C37.6961 47.3047 36.791 46.3996 36.791 45.2832C36.791 44.1668 37.6961 43.2617 38.8125 43.2617H40.9688C42.0851 43.2617 42.9902 44.1668 42.9902 45.2832C42.9902 46.3996 42.0851 47.3047 40.9688 47.3047Z" fill="var(--fill-0, #EDE0DB)"/>
<path id="Vector_17" d="M30.1875 38.6797H28.0312C26.9149 38.6797 26.0098 37.7746 26.0098 36.6582C26.0098 35.5418 26.9149 34.6367 28.0312 34.6367H30.1875C31.3039 34.6367 32.209 35.5418 32.209 36.6582C32.209 37.7746 31.3039 38.6797 30.1875 38.6797Z" fill="var(--fill-0, #FDF3F3)"/>
<path id="Vector_18" d="M40.9688 38.6797H38.8125C37.6961 38.6797 36.791 37.7746 36.791 36.6582C36.791 35.5418 37.6961 34.6367 38.8125 34.6367H40.9688C42.0851 34.6367 42.9902 35.5418 42.9902 36.6582C42.9902 37.7746 42.0851 38.6797 40.9688 38.6797Z" fill="var(--fill-0, #EDE0DB)"/>
<path id="Vector_19" d="M30.1875 30.0547H28.0312C26.9149 30.0547 26.0098 29.1496 26.0098 28.0332C26.0098 26.9168 26.9149 26.0117 28.0312 26.0117H30.1875C31.3039 26.0117 32.209 26.9168 32.209 28.0332C32.209 29.1496 31.3039 30.0547 30.1875 30.0547Z" fill="var(--fill-0, #FDF3F3)"/>
<path id="Vector_20" d="M40.9688 30.0547H38.8125C37.6961 30.0547 36.791 29.1496 36.791 28.0332C36.791 26.9168 37.6961 26.0117 38.8125 26.0117H40.9688C42.0851 26.0117 42.9902 26.9168 42.9902 28.0332C42.9902 29.1496 42.0851 30.0547 40.9688 30.0547Z" fill="var(--fill-0, #EDE0DB)"/>
<path id="Vector_21" d="M30.1875 21.4297H28.0312C26.9149 21.4297 26.0098 20.5246 26.0098 19.4082C26.0098 18.2918 26.9149 17.3867 28.0312 17.3867H30.1875C31.3039 17.3867 32.209 18.2918 32.209 19.4082C32.209 20.5246 31.3039 21.4297 30.1875 21.4297Z" fill="var(--fill-0, #FDF3F3)"/>
<path id="Vector_22" d="M40.9688 21.4297H38.8125C37.6961 21.4297 36.791 20.5246 36.791 19.4082C36.791 18.2918 37.6961 17.3867 38.8125 17.3867H40.9688C42.0851 17.3867 42.9902 18.2918 42.9902 19.4082C42.9902 20.5246 42.0851 21.4297 40.9688 21.4297Z" fill="var(--fill-0, #EDE0DB)"/>
</g>
</svg>
