<svg preserveAspectRatio="none" width="100%" height="100%" overflow="visible" style="display: block;" viewBox="0 0 70.6875 76.125" fill="none" xmlns="http://www.w3.org/2000/svg">
<g id="Group">
<path id="Vector" d="M10.875 38.0625H43.5V76.125H10.875V38.0625Z" fill="var(--fill-0, #0A5078)"/>
<path id="Vector_2" d="M27.1875 63.8906C24.3033 63.8906 21.5372 62.7449 19.4977 60.7054C17.4583 58.666 16.3125 55.8999 16.3125 53.0156V38.0625H38.0625V53.0156C38.0625 55.8999 36.9167 58.666 34.8773 60.7054C32.8378 62.7449 30.0717 63.8906 27.1875 63.8906Z" fill="var(--fill-0, #0A5078)"/>
<path id="Vector_3" d="M12.2344 76.125V52.3359C12.2344 52.1557 12.1628 51.9828 12.0353 51.8553C11.9078 51.7279 11.735 51.6562 11.5547 51.6562C11.3744 51.6562 11.2015 51.7279 11.0741 51.8553C10.9466 51.9828 10.875 52.1557 10.875 52.3359V76.125H12.2344ZM43.5 76.125V52.3359C43.5 52.1557 43.4284 51.9828 43.3009 51.8553C43.1735 51.7279 43.0006 51.6562 42.8203 51.6562C42.64 51.6562 42.4672 51.7279 42.3397 51.8553C42.2122 51.9828 42.1406 52.1557 42.1406 52.3359V76.125H43.5Z" fill="var(--fill-0, #00325A)"/>
<path id="Vector_4" d="M0 48.9375V76.125H10.875V38.0625C7.99077 38.0625 5.22467 39.2083 3.18521 41.2477C1.14576 43.2872 0 46.0533 0 48.9375ZM43.5 38.0625V76.125H54.375V48.9375C54.375 46.0533 53.2292 43.2872 51.1898 41.2477C49.1503 39.2083 46.3842 38.0625 43.5 38.0625Z" fill="var(--fill-0, #0A5078)"/>
<path id="Vector_5" d="M27.1875 63.8906C25.7454 63.8906 24.3623 63.3177 23.3426 62.298C22.3229 61.2783 21.75 59.8952 21.75 58.4531V38.0625H32.625V58.4531C32.625 59.8952 32.0521 61.2783 31.0324 62.298C30.0127 63.3177 28.6296 63.8906 27.1875 63.8906Z" fill="var(--fill-0, #F0F0F0)"/>
<path id="Vector_6" d="M21.75 50.2969L27.1875 44.8594L32.625 50.2969V39.4219H21.75V50.2969Z" fill="var(--fill-0, #D2D2D2)"/>
<path id="Vector_7" d="M29.9062 38.0625H24.4688V63.1634C25.2681 63.6255 26.1965 63.8906 27.1875 63.8906C28.1785 63.8906 29.1069 63.6255 29.9062 63.1634V38.0625Z" fill="var(--fill-0, #C80A50)"/>
<path id="Vector_8" d="M24.4688 47.5781L27.1875 44.8594L29.9062 47.5781V39.4219H24.4688V47.5781Z" fill="var(--fill-0, #A00028)"/>
<path id="Vector_9" d="M27.1875 43.5L32.625 48.9375V38.0625H21.75V48.9375L27.1875 43.5Z" fill="var(--fill-0, #F0F0F0)"/>
<path id="Vector_10" d="M32.625 2.71875H21.75C19.5868 2.71875 17.5123 3.57807 15.9827 5.10766C14.4531 6.63725 13.5938 8.71183 13.5938 10.875V19.0312H40.7812V10.875C40.7812 8.71183 39.9219 6.63725 38.3923 5.10766C36.8627 3.57807 34.7882 2.71875 32.625 2.71875Z" fill="var(--fill-0, #0A5078)"/>
<path id="Vector_11" d="M32.625 38.0625L27.1875 43.5L21.75 38.0625V29.9062H32.625V38.0625Z" fill="var(--fill-0, #D2AA82)"/>
<path id="Vector_12" d="M29.9062 35.3438H24.4688C21.5845 35.3438 18.8184 34.198 16.779 32.1585C14.7395 30.1191 13.5938 27.353 13.5938 24.4688V19.0312C14.3148 19.0312 15.0063 18.7448 15.5162 18.2349C16.0261 17.7251 16.3125 17.0336 16.3125 16.3125V10.875H38.0625V16.3125C38.0625 17.0336 38.3489 17.7251 38.8588 18.2349C39.3687 18.7448 40.0602 19.0312 40.7812 19.0312V24.4688C40.7812 27.353 39.6355 30.1191 37.596 32.1585C35.5566 34.198 32.7905 35.3438 29.9062 35.3438Z" fill="var(--fill-0, #F0C8A0)"/>
<path id="Vector_13" d="M13.5938 24.4688V16.3125C12.8727 16.3125 12.1812 16.5989 11.6713 17.1088C11.1614 17.6187 10.875 18.3102 10.875 19.0312V21.75C10.875 22.4711 11.1614 23.1626 11.6713 23.6724C12.1812 24.1823 12.8727 24.4688 13.5938 24.4688ZM40.7812 24.4688V16.3125C41.5023 16.3125 42.1938 16.5989 42.7037 17.1088C43.2136 17.6187 43.5 18.3102 43.5 19.0312V21.75C43.5 22.4711 43.2136 23.1626 42.7037 23.6724C42.1938 24.1823 41.5023 24.4688 40.7812 24.4688Z" fill="var(--fill-0, #D2AA82)"/>
<path id="Vector_14" d="M35.3438 10.875H16.3125V5.4375C16.3125 3.99539 16.8854 2.61234 17.9051 1.59261C18.9248 0.572878 20.3079 0 21.75 0H35.3438C36.7859 0 38.1689 0.572878 39.1886 1.59261C40.2084 2.61234 40.7812 3.99539 40.7812 5.4375C40.7812 6.87961 40.2084 8.26266 39.1886 9.28239C38.1689 10.3021 36.7859 10.875 35.3438 10.875Z" fill="var(--fill-0, #0A5078)"/>
<path id="Vector_15" d="M43.5 38.0625H37.0783C34.1962 41.4871 32.6187 45.8209 32.625 50.2969C32.625 60.8076 41.1456 69.3281 51.6562 69.3281C52.5793 69.3281 53.4873 69.2615 54.375 69.1351V48.9375C54.375 46.0533 53.2292 43.2872 51.1898 41.2477C49.1503 39.2083 46.3842 38.0625 43.5 38.0625Z" fill="var(--fill-0, #00325A)"/>
<path id="Vector_16" d="M51.6562 67.9688C62.1669 67.9688 70.6875 59.4482 70.6875 48.9375C70.6875 38.4268 62.1669 29.9062 51.6562 29.9062C41.1456 29.9062 32.625 38.4268 32.625 48.9375C32.625 59.4482 41.1456 67.9688 51.6562 67.9688Z" fill="var(--fill-0, #00A0C8)"/>
<path id="Vector_17" d="M59.8125 61.1719H43.5C42.7789 61.1719 42.0874 60.8854 41.5776 60.3756C41.0677 59.8657 40.7812 59.1742 40.7812 58.4531V42.1406C40.7812 41.4196 41.0677 40.728 41.5776 40.2182C42.0874 39.7083 42.7789 39.4219 43.5 39.4219H59.8125C60.5336 39.4219 61.2251 39.7083 61.7349 40.2182C62.2448 40.728 62.5312 41.4196 62.5312 42.1406V58.4531C62.5312 59.1742 62.2448 59.8657 61.7349 60.3756C61.2251 60.8854 60.5336 61.1719 59.8125 61.1719Z" fill="var(--fill-0, #0082AA)"/>
<path id="Vector_18" d="M59.8125 59.8125H43.5C42.7789 59.8125 42.0874 59.5261 41.5776 59.0162C41.0677 58.5063 40.7812 57.8148 40.7812 57.0938V40.7812C40.7812 40.0602 41.0677 39.3687 41.5776 38.8588C42.0874 38.3489 42.7789 38.0625 43.5 38.0625H59.8125C60.5336 38.0625 61.2251 38.3489 61.7349 38.8588C62.2448 39.3687 62.5312 40.0602 62.5312 40.7812V57.0938C62.5312 57.8148 62.2448 58.5063 61.7349 59.0162C61.2251 59.5261 60.5336 59.8125 59.8125 59.8125Z" fill="var(--fill-0, #FAB400)"/>
<path id="Vector_19" d="M53.0156 40.7812H50.2969C49.9363 40.7812 49.5906 40.638 49.3357 40.3831C49.0807 40.1282 48.9375 39.7824 48.9375 39.4219V38.0625H54.375V39.4219C54.375 39.7824 54.2318 40.1282 53.9768 40.3831C53.7219 40.638 53.3762 40.7812 53.0156 40.7812Z" fill="var(--fill-0, #BE7800)"/>
<path id="Vector_20" d="M52.2651 43.6072L53.9847 47.0926L57.8304 47.6513C57.9559 47.6695 58.0738 47.7225 58.1708 47.8043C58.2678 47.8861 58.34 47.9934 58.3791 48.114C58.4183 48.2347 58.423 48.3639 58.3925 48.487C58.3621 48.6102 58.2978 48.7223 58.2069 48.8109L55.4243 51.5242L56.0809 55.3549C56.1022 55.4798 56.0882 55.6082 56.0404 55.7255C55.9926 55.8429 55.913 55.9446 55.8105 56.0191C55.708 56.0936 55.5867 56.1379 55.4604 56.1472C55.334 56.1564 55.2075 56.1301 55.0953 56.0713L51.6561 54.2606L48.2155 56.0686C48.1033 56.1274 47.9768 56.1537 47.8505 56.1444C47.7241 56.1352 47.6028 56.0909 47.5003 56.0163C47.3978 55.9418 47.3182 55.8402 47.2704 55.7228C47.2226 55.6055 47.2086 55.4771 47.23 55.3522L47.8865 51.5215L45.1039 48.8081C45.013 48.7196 44.9487 48.6075 44.9183 48.4843C44.8879 48.3612 44.8925 48.2319 44.9317 48.1113C44.9709 47.9906 45.043 47.8834 45.14 47.8016C45.237 47.7198 45.3549 47.6668 45.4804 47.6486L49.3261 47.0899L51.0457 43.6044C51.1021 43.4907 51.1891 43.3951 51.297 43.3283C51.4049 43.2615 51.5294 43.2263 51.6563 43.2266C51.7831 43.2268 51.9074 43.2626 52.015 43.3299C52.1226 43.3972 52.2093 43.4932 52.2651 43.6072Z" fill="var(--fill-0, #DC9600)"/>
</g>
</svg>
