<svg preserveAspectRatio="none" width="100%" height="100%" overflow="visible" style="display: block;" viewBox="0 0 105.417 26.972" fill="none" xmlns="http://www.w3.org/2000/svg">
<g id="logos:docker" clip-path="url(#clip0_2_1007)">
<path id="Vector" d="M28.9653 5.2914L29.7672 5.87126C31.1619 6.99477 31.9637 8.26335 32.138 9.71301C33.6372 9.42308 35.5545 9.64058 36.3914 10.2204L37.1584 10.6917L37.0189 10.9818C36.7748 11.5252 36.7051 11.6703 36.6703 11.7427C35.3106 14.461 32.626 14.4972 31.371 14.461C28.1983 22.3982 21.4349 26.7836 12.3001 26.7836C8.08175 26.7836 4.87429 25.4426 2.71257 22.7968C-0.146101 19.3178 -0.146101 14.7871 0.0978212 13.3375L0.167661 13.0473H25.3743C26.699 13.0473 27.7103 12.6852 28.1983 12.395C27.6753 11.5977 27.501 10.6917 27.4662 10.1842C27.3615 8.73457 27.7103 7.21227 28.4077 6.12498L28.9653 5.2914ZM50.8059 6.9744C51.0872 6.9744 51.3253 7.06858 51.5203 7.25693C51.7154 7.44527 51.8129 7.68308 51.8129 7.97033V16.9343C51.8129 18.4282 51.2886 19.6924 50.2402 20.7267C49.179 21.7738 47.9134 22.2973 46.4433 22.2973C44.9603 22.2973 43.6946 21.7738 42.6464 20.7267C41.5981 19.6796 41.0739 18.4155 41.0739 16.9343C41.0739 15.4532 41.5981 14.1891 42.6464 13.142C43.6946 12.0947 44.9603 11.5712 46.4433 11.5713C47.7154 11.5713 48.8372 11.9639 49.8088 12.7492V7.97033C49.8088 7.68308 49.9031 7.44527 50.0916 7.25693C50.2802 7.06858 50.5183 6.9744 50.8059 6.9744ZM58.3234 11.5713C59.7937 11.5713 61.0593 12.0948 62.1203 13.1418C62.6446 13.6655 63.0362 14.2433 63.295 14.8752C63.5539 15.5073 63.6865 16.1937 63.693 16.9343C63.693 18.4282 63.1688 19.6924 62.1205 20.7267C61.0595 21.7738 59.7939 22.2973 58.3236 22.2973C56.8406 22.2973 55.5749 21.7738 54.5267 20.7267C53.4783 19.6796 52.954 18.4155 52.954 16.9343C52.954 15.4532 53.4782 14.1891 54.5265 13.142C55.5749 12.0947 56.8405 11.5712 58.3234 11.5713ZM70.1845 11.5713C71.5333 11.5713 72.6999 12.0055 73.6843 12.8739C73.9144 13.078 74.0294 13.3301 74.0294 13.6303C74.0294 13.9177 73.9351 14.157 73.7465 14.3484C73.558 14.5401 73.3199 14.6359 73.0323 14.6359C72.7947 14.6378 72.564 14.5565 72.3803 14.406C72.0543 14.1314 71.7124 13.9239 71.3543 13.7836C70.9962 13.6432 70.6063 13.573 70.1845 13.5729C69.718 13.5729 69.2801 13.6607 68.871 13.8362C68.4708 14.0057 68.1064 14.2494 67.797 14.5544C67.4884 14.8599 67.2425 15.2227 67.0731 15.6223C66.8973 16.0307 66.8094 16.4681 66.8094 16.9343C66.8094 17.4003 66.8973 17.8377 67.0731 18.2463C67.2425 18.646 67.4884 19.0088 67.797 19.3143C68.1064 19.6193 68.4708 19.863 68.871 20.0324C69.2801 20.208 69.718 20.2958 70.1845 20.2958C70.6065 20.2958 70.9964 20.2272 71.3543 20.09C71.7124 19.9526 72.0511 19.7466 72.3706 19.4721C72.5497 19.3381 72.7606 19.2678 73.0035 19.2614C73.291 19.2614 73.5291 19.3556 73.7177 19.5439C73.9063 19.7323 74.0006 19.9701 74.0006 20.2575C74.0006 20.5385 73.8952 20.7842 73.6843 20.9948C72.6935 21.8632 71.5269 22.2973 70.1845 22.2973C68.7015 22.2973 67.4359 21.7738 66.3877 20.7267C65.3393 19.6796 64.8152 18.4155 64.8152 16.9343C64.8152 15.4532 65.3393 14.1891 66.3877 13.142C67.436 12.0949 68.7016 11.5713 70.1845 11.5713ZM76.1681 6.9744C76.4429 6.9744 76.6777 7.0718 76.8726 7.2666C77.0677 7.46112 77.1652 7.69892 77.1652 7.98V15.4499L82.899 11.7244C83.0587 11.6224 83.2377 11.5713 83.4359 11.5713C83.5765 11.5713 83.7075 11.5968 83.829 11.6479C83.9505 11.6989 84.056 11.7707 84.1454 11.8633C84.2348 11.9559 84.3067 12.0629 84.3611 12.1843C84.4155 12.3057 84.4427 12.4333 84.4427 12.5671C84.4427 12.9247 84.3148 13.1897 84.0591 13.3622L80.0418 15.9672L84.1646 20.6022C84.35 20.8065 84.4427 21.0395 84.4427 21.3014C84.4427 21.4354 84.4155 21.5631 84.3611 21.6844C84.3085 21.8031 84.2355 21.9118 84.1454 22.0054C84.056 22.098 83.9505 22.1697 83.829 22.2206C83.7044 22.2721 83.5707 22.2982 83.4359 22.2973C83.1674 22.2973 82.9436 22.2111 82.7647 22.0387L78.3349 17.0683L77.1652 17.8346V21.2917C77.1652 21.5662 77.0677 21.8025 76.8726 22.0004C76.6776 22.1984 76.4427 22.2973 76.1681 22.2973C75.8868 22.2973 75.6486 22.1984 75.4536 22.0004C75.2586 21.8025 75.1611 21.5662 75.1611 21.2917V7.98C75.1611 7.69906 75.2586 7.46119 75.4536 7.26639C75.6486 7.07159 75.8868 6.9744 76.1681 6.9744ZM90.8959 11.5711C92.366 11.5711 93.6317 12.0946 94.6928 13.1416C95.2169 13.6587 95.61 14.235 95.8722 14.8702C96.1343 15.5054 96.2653 16.1934 96.2653 16.9341C96.2653 17.2214 96.1678 17.4592 95.9727 17.6475C95.7777 17.8359 95.5396 17.9301 95.2585 17.9301H87.6648C87.7703 18.2751 87.9323 18.6002 88.1442 18.8925C88.3509 19.1789 88.6016 19.431 88.887 19.6394C89.1735 19.8481 89.4905 20.0112 89.8269 20.1232C90.1689 20.2381 90.5252 20.2956 90.8959 20.2956C91.3178 20.2956 91.7045 20.2317 92.056 20.104C92.4076 19.9765 92.7336 19.7849 93.0341 19.5293C93.2192 19.3725 93.4528 19.2846 93.6955 19.2803C93.9832 19.2803 94.2213 19.3745 94.4099 19.5629C94.5985 19.7512 94.6928 19.9891 94.6928 20.2765C94.6928 20.5573 94.5969 20.7967 94.4052 20.9946C93.4144 21.863 92.2446 22.2971 90.8959 22.2971C89.4129 22.2971 88.1472 21.7736 87.099 20.7265C86.0507 19.6794 85.5265 18.4153 85.5265 16.9341C85.5265 15.453 86.0507 14.1889 87.099 13.1418C88.1474 12.0947 89.413 11.5711 90.8959 11.5711ZM102.738 11.5711C103.019 11.5711 103.321 11.5903 103.644 11.6285C103.966 11.6669 104.264 11.7355 104.536 11.8343C104.807 11.9332 105.032 12.0689 105.211 12.2413C105.391 12.4138 105.48 12.6372 105.48 12.9117C105.48 13.0523 105.453 13.1833 105.398 13.3045C105.346 13.4232 105.273 13.5318 105.183 13.6253C105.093 13.7179 104.988 13.7897 104.866 13.8408C104.742 13.8923 104.608 13.9183 104.473 13.9173C104.352 13.9173 104.211 13.8822 104.051 13.812C103.649 13.6524 103.211 13.5727 102.738 13.5727C102.271 13.5727 101.833 13.6605 101.424 13.836C101.015 14.0116 100.659 14.251 100.355 14.5542C100.051 14.8575 99.8117 15.2135 99.6359 15.6221C99.4601 16.0305 99.3722 16.4679 99.3722 16.9341V21.3012C99.3722 21.5757 99.2747 21.8103 99.0797 22.0049C98.8846 22.1996 98.6498 22.297 98.3751 22.2971C98.0938 22.2971 97.8557 22.1997 97.6608 22.0049C97.4659 21.8101 97.3684 21.5756 97.3683 21.3012V12.5673C97.3683 12.2926 97.4658 12.058 97.6608 11.8635C97.8559 11.6687 98.094 11.5713 98.3751 11.5713C98.6499 11.5713 98.8848 11.6687 99.0797 11.8635C99.2747 12.058 99.3722 12.2926 99.3722 12.5673V12.7586C99.8414 12.3815 100.369 12.0839 100.935 11.8777C101.497 11.6733 102.098 11.5711 102.738 11.5711ZM46.4433 13.5727C45.9703 13.5727 45.5292 13.662 45.1201 13.8408C44.7109 14.0195 44.3562 14.2605 44.0558 14.5639C43.7554 14.8672 43.5173 15.2231 43.3415 15.6318C43.1657 16.0405 43.0778 16.4746 43.0778 16.9341C43.0778 17.3937 43.1657 17.8279 43.3415 18.2367C43.5173 18.6455 43.7554 19.0014 44.0558 19.3044C44.3562 19.6074 44.7109 19.8485 45.1201 20.0275C45.5292 20.2061 45.9703 20.2955 46.4433 20.2956C46.9099 20.2956 47.3477 20.2062 47.7569 20.0275C48.1564 19.855 48.5193 19.6079 48.8261 19.2995C49.1305 18.9916 49.3744 18.6294 49.5451 18.2317C49.7209 17.8264 49.8088 17.3938 49.8088 16.9341C49.8088 16.4744 49.7209 16.0418 49.5451 15.6363C49.3744 15.2386 49.1305 14.8764 48.8261 14.5686C48.5193 14.2602 48.1564 14.0132 47.7569 13.8408C47.3478 13.662 46.91 13.5727 46.4433 13.5727ZM58.3236 13.5727C57.8506 13.5727 57.4095 13.662 57.0004 13.8408C56.5912 14.0195 56.2365 14.2605 55.9361 14.5639C55.6357 14.8672 55.3976 15.2231 55.2216 15.6318C55.0457 16.0405 54.9578 16.4746 54.9579 16.9341C54.9581 17.3937 55.046 17.8279 55.2216 18.2367C55.3976 18.6452 55.6357 19.0011 55.9361 19.3044C56.2365 19.6077 56.5912 19.8487 57.0004 20.0275C57.4095 20.2062 57.8506 20.2956 58.3236 20.2956C58.7902 20.2956 59.228 20.2062 59.6372 20.0275C60.0367 19.855 60.3996 19.6079 60.7064 19.2995C61.0108 18.9916 61.2547 18.6294 61.4254 18.2317C61.6012 17.8264 61.6891 17.3938 61.6891 16.9341C61.6891 16.4744 61.6012 16.0418 61.4254 15.6363C61.2547 15.2386 61.0108 14.8764 60.7064 14.5686C60.3996 14.2602 60.0367 14.0132 59.6372 13.8408C59.228 13.662 58.7902 13.5727 58.3236 13.5727ZM90.8959 13.5727C90.5315 13.5727 90.1768 13.6301 89.8316 13.7449C89.4923 13.8568 89.1722 14.0198 88.8823 14.2284C88.5946 14.4359 88.3421 14.6882 88.1345 14.9756C87.9233 15.2668 87.7644 15.5925 87.6648 15.938H94.1271C94.0211 15.5923 93.8574 15.2669 93.6429 14.9756C93.4334 14.6898 93.1812 14.4379 92.8951 14.2287C92.6087 14.0201 92.2917 13.857 91.9554 13.7451C91.6141 13.6302 91.2561 13.5719 90.8959 13.5727ZM6.72205 8.69794V12.3224H2.88707V8.69835L6.72205 8.69794ZM11.2544 8.69794V12.3224H7.41941V8.69835L11.2544 8.69794ZM15.7867 8.69794V12.3224H11.9515V8.69835L15.7867 8.69794ZM20.3191 8.69794V12.3224H16.4839V8.69835L20.3191 8.69794ZM24.8514 8.69794V12.3224H21.0162V8.69835L24.8514 8.69794ZM20.3191 4.34897V7.97321H16.4839V4.34918L20.3191 4.34897ZM15.7867 4.34897V7.97321H11.9515V4.34918L15.7867 4.34897ZM11.2544 4.34897V7.97321H7.41941V4.34918L11.2544 4.34897ZM20.3191 0V3.62424H16.4839V0H20.3191Z" fill="var(--fill-0, white)"/>
</g>
<defs>
<clipPath id="clip0_2_1007">
<rect width="105.417" height="26.972" fill="white"/>
</clipPath>
</defs>
</svg>
