<svg preserveAspectRatio="none" width="100%" height="100%" overflow="visible" style="display: block;" viewBox="0 0 32.5002 27.2296" fill="none" xmlns="http://www.w3.org/2000/svg">
<g id="Group 1707478469">
<path id="Subtract" d="M23.7158 14.0537L19.1045 20.2021H8.34473L5.27051 27.2295H0L11.8584 0H17.3477L23.7158 14.0537ZM22.1787 26.79H16.0303L19.1045 21.959L22.1787 26.79ZM26.79 3.29395C30.7427 3.07435 32.5 6.80739 32.5 9.66211V26.79H24.375L21.3008 20.8613L24.375 16.25L27.2295 21.959H28.1084V11.6387C28.1084 10.6139 27.8441 8.47635 26.79 8.125C25.4726 7.68602 23.9358 8.12494 22.8379 9.22266C22.3109 8.34425 21.3738 6.66065 21.0811 5.92871C21.9595 5.26983 23.7162 3.46485 26.79 3.29395ZM10.1016 15.3711H19.1045L14.7129 4.83105L10.1016 15.3711Z" fill="url(#paint0_linear_2_1022)"/>
<path id="Vector 2" d="M12.8462 13.6148L14.6458 9.22293L16.3597 13.6148H12.8462Z" fill="url(#paint1_linear_2_1022)"/>
</g>
<defs>
<linearGradient id="paint0_linear_2_1022" x1="16.2501" y1="0" x2="16.2501" y2="27.2296" gradientUnits="userSpaceOnUse">
<stop stop-color="#F3E295"/>
<stop offset="1" stop-color="#CFA857"/>
</linearGradient>
<linearGradient id="paint1_linear_2_1022" x1="14.6887" y1="9.22293" x2="14.6887" y2="13.6148" gradientUnits="userSpaceOnUse">
<stop stop-color="#F3E295"/>
<stop offset="1" stop-color="#CFA857"/>
</linearGradient>
</defs>
</svg>
