<svg preserveAspectRatio="none" width="100%" height="100%" overflow="visible" style="display: block;" viewBox="0 0 118.627 22.9376" fill="none" xmlns="http://www.w3.org/2000/svg">
<g id="logos:supabase" clip-path="url(#clip0_2_927)">
<path id="Vector" d="M57.5191 6.25351C60.3949 6.25351 62.0524 8.55134 62.0524 11.6014C62.0524 14.7139 60.1952 17.012 57.4194 17.012C56.0908 17.012 55.1061 16.4722 54.6155 15.8033L54.5833 15.7583V20.7304H51.9273V6.48318H54.5035V7.73662C54.9432 6.94274 56.0414 6.25351 57.5191 6.25351ZM34.1939 6.16993C36.1387 6.16993 37.185 7.06965 37.682 7.98997L37.7271 8.07639L37.7688 8.16257C37.7824 8.19146 37.7953 8.22018 37.8075 8.24875L37.8433 8.33446L37.8759 8.4197L37.9059 8.50423L37.9197 8.54613L37.9453 8.62924L37.9684 8.7114L37.9886 8.79214L37.9976 8.83215L38.014 8.91076L38.0278 8.98794L38.0391 9.063L38.0482 9.1364L35.8314 9.65847C35.7514 9.05282 35.3322 8.27977 34.2138 8.27977C33.5147 8.27977 32.9556 8.7185 32.9556 9.30332C32.9556 9.78916 33.2931 10.0984 33.8043 10.2123L33.8542 10.2227L35.2524 10.5359C37.1893 10.9538 38.1681 12.1862 38.1681 13.6904C38.1681 15.3615 36.9296 17.0745 34.3536 17.0745C32.4138 17.0745 31.3084 16.2108 30.7439 15.2864L30.6917 15.1984C30.675 15.1691 30.6587 15.1396 30.6428 15.1098L30.597 15.0215C30.5748 14.9773 30.5539 14.9331 30.5342 14.8889L30.4959 14.8011C30.4839 14.772 30.4721 14.7428 30.4608 14.7135L30.4286 14.6268L30.3992 14.5406L30.3856 14.498L30.3602 14.4135L30.3375 14.3301L30.3178 14.248L30.3006 14.1675L30.2859 14.0884L30.2734 14.0112L30.2637 13.9362L30.2596 13.8992L32.5362 13.3769C32.596 14.1916 33.1752 14.9438 34.3335 14.9438C35.2123 14.9438 35.6318 14.4632 35.6318 13.9201C35.6318 13.4733 35.3485 13.1056 34.6356 12.9318L34.5732 12.9176L33.2752 12.6041C31.3779 12.1654 30.5193 10.9747 30.5193 9.53322C30.5193 7.69495 32.0768 6.16993 34.1939 6.16993ZM101.01 6.16993C102.925 6.16993 103.969 7.04171 104.475 7.94687L104.521 8.0333C104.566 8.11964 104.607 8.20574 104.642 8.29161L104.677 8.37708L104.708 8.46208C104.723 8.50423 104.737 8.54613 104.75 8.58781L104.774 8.67067L104.785 8.7114L104.805 8.79214L104.814 8.83215L104.831 8.91076L104.838 8.94959L104.85 9.02559L104.856 9.063L104.865 9.1364L102.648 9.65847L102.637 9.58791C102.627 9.52687 102.613 9.46647 102.597 9.40702L102.574 9.33362C102.402 8.80824 101.955 8.28001 101.03 8.28001C100.331 8.28001 99.7724 8.7185 99.7724 9.30332C99.7724 9.78916 100.109 10.0984 100.621 10.2123L100.67 10.2227L102.069 10.5359C104.006 10.9538 104.984 12.1862 104.984 13.6904C104.984 15.3615 103.746 17.0745 101.17 17.0745C99.2611 17.0745 98.1604 16.238 97.5878 15.3305L97.5338 15.2424L97.4833 15.1541L97.4359 15.0655L97.3917 14.9772C97.3707 14.9335 97.3505 14.8894 97.3312 14.8449L97.2945 14.7573L97.261 14.6699L97.2451 14.6268L97.2157 14.5406L97.1891 14.4554L97.1651 14.3716L97.1542 14.3301L97.1343 14.248L97.1171 14.1675L97.1023 14.0884L97.0901 14.0112L97.0801 13.9362L97.0763 13.8992L99.3529 13.3769C99.4129 14.1916 99.9919 14.9438 101.15 14.9438C102.029 14.9438 102.448 14.4632 102.448 13.9201C102.448 13.4733 102.165 13.1056 101.452 12.9318L101.39 12.9176L100.092 12.6041C98.1942 12.1654 97.336 10.9747 97.336 9.53322C97.336 7.69495 98.8933 6.16993 101.01 6.16993ZM111.175 6.16993C114.211 6.16993 116.028 8.19619 116.028 11.497L116.026 11.64L116.022 11.7809L116.016 11.9151L116.002 12.1481L115.989 12.3465L115.988 12.3536H108.959C109.018 13.7112 110.117 14.6929 111.435 14.6929C112.648 14.6929 113.325 14.0711 113.652 13.1811L113.672 13.1264L115.888 13.8156C115.389 15.5914 113.831 17.0745 111.415 17.0745C108.719 17.0745 106.342 15.0482 106.342 11.5805C106.342 8.30061 108.659 6.16993 111.175 6.16993ZM67.9703 6.16993C70.9299 6.16993 72.1232 7.82897 72.2352 9.76809L72.2406 9.89098C72.2421 9.93202 72.2431 9.97313 72.2436 10.0143L72.2438 10.0764L72.2443 15.2071L72.247 15.3629L72.2524 15.5246L72.2601 15.6892L72.2647 15.7718L72.2753 15.9359L72.2875 16.0969L72.3011 16.2517L72.3156 16.3981L72.3311 16.5335L72.3469 16.6554L72.3553 16.7106L72.3635 16.7613H69.9271C69.8811 16.5536 69.8469 16.1748 69.8335 15.8308L69.8287 15.675C69.8277 15.6243 69.8272 15.5755 69.8272 15.5287C69.3279 16.3434 68.3893 17.0537 66.9317 17.0537C64.8346 17.0537 63.5567 15.5706 63.5567 13.962C63.5567 12.1497 64.8178 11.1293 66.4222 10.8603L66.4925 10.8492L68.9087 10.4732C69.468 10.3896 69.6474 10.0972 69.6474 9.74205C69.6474 9.01091 69.1083 8.40502 67.9897 8.40502C66.8533 8.40502 66.2165 9.14966 66.1179 10.0266L66.1127 10.0764L63.7563 9.55405C63.9158 7.94546 65.3338 6.16993 67.9703 6.16993ZM90.9637 6.16993C93.9234 6.16993 95.117 7.82897 95.2289 9.76809L95.2346 9.89098C95.2359 9.93202 95.2368 9.97313 95.2373 10.0143L95.2377 10.0764L95.2382 15.2071L95.2409 15.3629L95.2463 15.5246L95.25 15.6068L95.2586 15.7718L95.2638 15.8542L95.2751 16.0171L95.288 16.1753L95.3023 16.3261L95.3096 16.3981L95.325 16.5335C95.3328 16.5982 95.3409 16.6572 95.3492 16.7106L95.3572 16.7613H92.921C92.8893 16.6173 92.863 16.3917 92.8456 16.1521L92.8349 15.9911L92.8308 15.9106L92.8245 15.7519C92.8222 15.6738 92.8209 15.5987 92.8209 15.5287C92.3219 16.3434 91.383 17.0537 89.9254 17.0537C87.8283 17.0537 86.5504 15.5706 86.5504 13.962C86.5504 12.1497 87.8117 11.1293 89.4162 10.8603L89.4862 10.8492L91.9024 10.4732C92.4617 10.3896 92.6414 10.0972 92.6414 9.74205C92.6414 9.01091 92.1023 8.40502 90.9837 8.40502C89.847 8.40502 89.2104 9.14966 89.1114 10.0266L89.1064 10.0764L86.75 9.55405C86.9098 7.94546 88.3277 6.16993 90.9637 6.16993ZM42.7818 6.48318V12.4161C42.7818 13.5649 43.341 14.4843 44.5793 14.4843C45.7373 14.4843 46.4128 13.6771 46.4357 12.5191L46.4364 12.4578V6.48318H49.0926V14.9022C49.0926 14.961 49.093 15.0194 49.0937 15.0771L49.0964 15.2486L49.1008 15.4159L49.1064 15.5788L49.1171 15.8125L49.1255 15.9605L49.1391 16.1689L49.154 16.3592L49.1737 16.5811L49.1882 16.7205L49.1928 16.7615H46.656L46.6497 16.7262L46.6372 16.6434C46.6328 16.611 46.6288 16.5787 46.6252 16.5463L46.6139 16.4367L46.6086 16.3782L46.5989 16.2546L46.5905 16.1248L46.5837 15.9911L46.5812 15.9233L46.5776 15.7879C46.5767 15.7428 46.5762 15.6982 46.5762 15.6541C46.0371 16.6154 44.8984 17.0331 43.86 17.0331C41.5091 17.0331 40.1548 15.2545 40.126 13.0523L40.1256 12.9803V6.48341L42.7818 6.48318ZM77.5374 1.63654V7.61138C77.9765 6.88024 79.055 6.2116 80.5128 6.2116C83.3886 6.2116 85.0465 8.53051 85.0465 11.5805C85.0465 14.6931 83.2094 17.012 80.4131 17.012C79.0831 17.012 78.0599 16.4111 77.5306 15.5623L77.4975 15.5078V16.7613H74.9211V1.63654H77.5374ZM69.6474 12.6041V12.1445L67.4309 12.4997C66.7515 12.6039 66.2124 13.0009 66.2124 13.7948C66.2124 14.4007 66.6321 14.9857 67.4905 14.9857C68.5928 14.9857 69.6175 14.4379 69.647 12.6822L69.6474 12.6041ZM92.6414 12.6041V12.1445L90.4246 12.4997C89.7454 12.6039 89.2063 13.0009 89.2063 13.7948C89.2063 14.4007 89.6258 14.9857 90.4847 14.9857C91.5867 14.9857 92.6112 14.4379 92.6407 12.6822L92.6414 12.6041ZM56.9997 8.7391C55.6421 8.7391 54.5436 9.80455 54.5436 11.622C54.5436 13.4394 55.6421 14.5257 56.9997 14.5257C58.3578 14.5257 59.4361 13.4602 59.4361 11.622C59.4361 9.80455 58.3576 8.7391 56.9997 8.7391ZM79.954 8.69743C78.6161 8.69743 77.4977 9.72098 77.4977 11.6011C77.4977 13.4602 78.6161 14.5257 79.954 14.5257C81.3121 14.5257 82.3901 13.4813 82.3901 11.6011C82.3901 9.72098 81.3121 8.69743 79.954 8.69743ZM111.215 8.42586C109.861 8.42586 109.104 9.47568 109.022 10.4043L109.019 10.4521H113.412C113.372 9.42857 112.733 8.42586 111.215 8.42586Z" fill="var(--fill-0, white)"/>
<path id="Vector_2" d="M12.7302 22.9892C12.1587 23.7414 10.9998 23.3292 10.986 22.3689L10.7845 8.32311H19.824C21.4614 8.32311 22.3744 10.2989 21.3564 11.6388L12.7302 22.9892Z" fill="url(#paint0_linear_2_927)"/>
<path id="Vector_3" d="M12.7302 22.9892C12.1587 23.7414 10.9998 23.3292 10.986 22.3689L10.7845 8.32311H19.824C21.4614 8.32311 22.3744 10.2989 21.3564 11.6388L12.7302 22.9892Z" fill="var(--fill-0, white)" fill-opacity="0.2"/>
<path id="Vector_4" d="M9.05402 0.388441C9.62555 -0.363296 10.7847 0.0486797 10.7983 1.00877L10.8867 15.0545H1.96022C0.322911 15.0545 -0.59013 13.079 0.427834 11.7391L9.05402 0.388441Z" fill="var(--fill-0, white)"/>
</g>
<defs>
<linearGradient id="paint0_linear_2_927" x1="240.262" y1="319.756" x2="765.186" y2="530.469" gradientUnits="userSpaceOnUse">
<stop stop-color="white"/>
</linearGradient>
<clipPath id="clip0_2_927">
<rect width="118.627" height="22.9376" fill="white"/>
</clipPath>
</defs>
</svg>
