<svg preserveAspectRatio="none" width="100%" height="100%" overflow="visible" style="display: block;" viewBox="0 0 75.3012 80.7217" fill="none" xmlns="http://www.w3.org/2000/svg">
<g id="Group">
<path id="Vector" fill-rule="evenodd" clip-rule="evenodd" d="M7.82617 48.8945H20.7647V79.419H7.82617V48.8945Z" fill="var(--fill-0, #FFE177)"/>
<path id="Vector_2" fill-rule="evenodd" clip-rule="evenodd" d="M18.3232 48.8945H20.7644V79.419H18.3232V48.8945Z" fill="var(--fill-0, #FFD064)"/>
<path id="Vector_3" fill-rule="evenodd" clip-rule="evenodd" d="M31.1816 34.7031H44.1202V79.4209H31.1816V34.7031Z" fill="var(--fill-0, #6CF5C2)"/>
<path id="Vector_4" fill-rule="evenodd" clip-rule="evenodd" d="M41.6787 34.7031H44.1199V79.4209H41.6787V34.7031Z" fill="var(--fill-0, #00E499)"/>
<path id="Vector_5" fill-rule="evenodd" clip-rule="evenodd" d="M54.5361 18.0547H67.4747V79.4208H54.5361V18.0547Z" fill="var(--fill-0, #8AC9FE)"/>
<path id="Vector_6" fill-rule="evenodd" clip-rule="evenodd" d="M65.0342 18.0547H67.4754V79.4208H65.0342V18.0547Z" fill="var(--fill-0, #60B7FF)"/>
<path id="Vector_7" d="M14.2955 51.9519C17.8683 51.9519 20.7647 50.5119 20.7647 48.7357C20.7647 46.9595 17.8683 45.5195 14.2955 45.5195C10.7226 45.5195 7.82617 46.9595 7.82617 48.7357C7.82617 50.5119 10.7226 51.9519 14.2955 51.9519Z" fill="var(--fill-0, #FFD064)"/>
<path id="Vector_8" d="M37.6509 37.9167C41.2238 37.9167 44.1202 36.4768 44.1202 34.7005C44.1202 32.9243 41.2238 31.4844 37.6509 31.4844C34.078 31.4844 31.1816 32.9243 31.1816 34.7005C31.1816 36.4768 34.078 37.9167 37.6509 37.9167Z" fill="var(--fill-0, #00E499)"/>
<path id="Vector_9" d="M61.0054 21.2683C64.5783 21.2683 67.4747 19.8283 67.4747 18.0521C67.4747 16.2759 64.5783 14.8359 61.0054 14.8359C57.4325 14.8359 54.5361 16.2759 54.5361 18.0521C54.5361 19.8283 57.4325 21.2683 61.0054 21.2683Z" fill="var(--fill-0, #60B7FF)"/>
<path id="Vector_10" fill-rule="evenodd" clip-rule="evenodd" d="M1.30196 80.7217C0.583441 80.7217 0 80.1382 0 79.4197C0 78.7012 0.583441 78.1177 1.30196 78.1177H73.9992C74.7177 78.1177 75.3012 78.7012 75.3012 79.4197C75.3012 80.1382 74.7177 80.7217 73.9992 80.7217H1.30196ZM61.9598 4.62709C45.9747 18.2764 28.4827 26.8984 11.9409 32.4715C11.26 32.7009 10.5208 32.3343 10.2913 31.6534C10.0619 30.9724 10.4285 30.2332 11.1095 30.0039C27.3026 24.5482 44.4263 16.1262 60.0861 2.80272L57.5841 2.93601C57.2393 2.95428 56.9014 2.83491 56.6447 2.60413C56.3879 2.37336 56.2333 2.05007 56.2148 1.70533C56.1965 1.36056 56.3159 1.02264 56.5466 0.765838C56.7774 0.509037 57.1007 0.35437 57.4454 0.335829L63.7066 0.00187615C63.8995 -0.00849402 64.0923 0.0242212 64.2711 0.0976475C64.4498 0.171074 64.6099 0.28337 64.7399 0.426385C64.8698 0.5694 64.9662 0.739547 65.0222 0.924479C65.0782 1.10941 65.0923 1.30449 65.0635 1.49555L64.1603 7.50622C64.1089 7.84761 63.924 8.15462 63.6463 8.35975C63.3686 8.56489 63.0208 8.65137 62.6793 8.60019C62.338 8.54874 62.031 8.36387 61.8259 8.0862C61.6207 7.80853 61.5342 7.46078 61.5854 7.11937L61.9598 4.62709Z" fill="var(--fill-0, #A79BA7)"/>
</g>
</svg>
